<svg id="Calque_19" data-name="Calque 19" xmlns="http://www.w3.org/2000/svg" viewBox="0 0 1360 635.07"><defs><style>.cls-1{fill:#6785c1;fill-rule:evenodd;}</style></defs><title>arriere_devant</title><path class="cls-1" d="M.07,4258.73l9.65,4V4292h9.34s14.66,2,18,5.33L55.72,4308v32.66h8v-232H83.06V4090l8.66.66v8h50v-52s-3.5-1.5-3.5-7.83,3.5-7,3.5-7V3980a51.81,51.81,0,0,1,4,19.66v67.17s13,2.5,13.17,31.33c0,0,1.5,8.17,8.83,8.17l3,6.33v135.5h27.5v14h16.25v82h4.75v5h10.5V4303s-.5-15.34,52.5-14.84,59.5,0,59.5,0v69h11v-6.5h17s2,7,6,7v10.5h17v-227.5h4.75v-52l31.59-6V4062l27.66-25.67,7-17,12-19.67h11.67a29.51,29.51,0,0,1,23.08-17h11.75l4-9.75,17,.25v26.5h11s23.45-.75,33,22.75l4,29,16,13v142.25l24-18.5,83,.5v141.08H730.3V4320h22.09V4200l-6.42-3.59-.25-9.25L810,4155.43l34.75.5,8-5.5V4059l18.67-11,19.33-.34v-12.33l18-.33v8h18.34v-7.67h16.66v8.33h27.67l8.67,7.34v86.66l94.66-9s25.63-3.5,27.75,4.75v262.75h3.75v-8.12l15.63-.13v-10.25h11.5v-14.62l18.37-.13v14.88l5.38.12V4245l33.62-5.79v-68.88s-1.33-28.33,25-28.33,26.34,26.66,26.34,26.66V4225l20.33.66v116h46l5.33,7V4371h5v-35.67l29,.33V4330H1360v278H0" transform="translate(0 -3972.93)"/></svg>