<svg id="Calque_19" data-name="Calque 19" xmlns="http://www.w3.org/2000/svg" viewBox="0 0 1359.98 1064.34"><defs><style>.cls-1{fill:#3c4999;fill-rule:evenodd;}</style></defs><title>arriere_fond</title><path class="cls-1" d="M.07,4067.07h2.1l24,34.32v64H35.5l5.34-13H83.5l4.67,13v40l7.33-12V4039s8.67-1,12.67-20.8H177.5l14,20.8V4200.2h26.67V4168h10v-15.6l22.67-1,13.33-133.13V3723.86h32s23.33-1,43.33,17.68l44-17.69,10,129v104l55.34,83.2v103l7.33-2.08s10.67-17.69,10.67-81.13v-62.4H481.5v-13.52h28.67l12.67,14.56,14.66,9.36v45.76h9.34s14.66,3.12,18,8.32l18.66,16.64v51h8V3767.54h19.34v-29.12l8.66,1v12.48h50v-81.12s-3.5-2.34-3.5-12.22,3.5-10.92,3.5-10.92v-80.86a119.94,119.94,0,0,1,4,30.68v104.78s13,3.9,13.17,48.88c0,0,1.5,12.74,8.83,12.74l3,9.88v211.39H726V4007h16.25v127.93H747v7.8h10.5V3566.82s-.5-23.92,52.5-23.14,59.5,0,59.5,0v611.56h11v-10.14h17s2,10.92,6,10.92v16.38h17V3817.47h4.75v-81.13l31.59-9.36v-32.24l27.66-40,7-26.52,12-30.68h11.67s5.83-23,23.08-26.52H1050l4-15.21,17,.39v41.34h11s23.45-1.17,33,35.49l4,45.24,16,20.28v221.92l24-28.86,83,.78v220.08h16.08v-15.2h22.09V3910l-6.42-5.59-.25-14.43,64.25-49.53,22.25.5v767H0Z" transform="translate(-0.02 -3543.66)"/></svg>