<svg id="objets" xmlns="http://www.w3.org/2000/svg" viewBox="0 0 67.19 98.62"><title>bird</title><g id="Oiseaux_3" data-name="Oiseaux 3"><path d="M668.36,2423.66a19.68,19.68,0,0,0-8.6,2.25,45.28,45.28,0,0,1,7.1,3c.52,6.52,8.79,9.27,8.79,9.27,4.3,11.2,26.75,18,26.75,18l-.11,16.36c1.44,3.17,4,.62,4,.62a4,4,0,0,0,4.61,1c3,3.27,6.64.72,6.64.72,3.84,2.6,6.75.15,6.75.15L714,2450.34a39.16,39.16,0,0,0-7.21-16.57c10-.15,17.38-8.59,17.38-8.59-1.33.61-6.85.1-6.85.1,6.95-3.37,9.61-13.5,9.61-13.5s0-1.13-.41.1-5.93,4.2-5.93,4.2c2.46-2.66,4.2-17.19,4.2-17.19-.62,1.43-8.8,9.11-8.8,9.11,5.93-6.45,6.75-26.09,6.75-26.09-1.14,2.81-8,10.87-15.44,19.17,0-14.3-6.34-23.61-6.34-23.61,2,4.9-14.63,46.17-14.63,46.17C675.76,2415.76,670.55,2420.21,668.36,2423.66Z" transform="translate(-659.76 -2377.47)"/></g></svg>