<svg id="objets" xmlns="http://www.w3.org/2000/svg" viewBox="0 0 304.08 475.36"><title>birds</title><g id="Oiseaux_2" data-name="Oiseaux 2"><path d="M1058.47,2242.57s1.92-6.64,6.31-11.09,6.92-7,7.93-5.93.44,3.36.79,4.26,2.58.81,4.55-.46,4.41-3.26,7.07-3.45,4.81.72,5.52.47a3,3,0,0,1,2.38,0c.58.42-2.27.94-3,2.43a7.39,7.39,0,0,0-.85,2.72s2.84-3,5.39-1.14,3.39,3.27,7.09,5.77,23.07,17.8,26.28,21.64-2.12,1.23-4,.07-19-.88-28.82-9.05c-3.59-3-13.42,1.62-17.28.64s-7.59-1.67-8.64-1.85-7.81,7.32-9.07,10.85-7.37-.11-8.37-5.46-.3-6.31.74-6.38a33.79,33.79,0,0,0,8.85-2.58c2.63-1.37,1.24-2.21.49-1.81S1059,2243.61,1058.47,2242.57Z" transform="translate(-888.28 -1868.83)"/><path d="M1084.78,1917c0-.37-.51-12.54-3.15-16.46s-12.85-15.16-18-21-11.26-11.37-12.35-10.7,5.15,7.52,5.53,11.87a54,54,0,0,0,2.93,12.55c1.22,3.47,4.44,6,4.11,8.88s.27,8.4,3.07,16.81,4.55,13.92,4.68,18.06.39,5.85-4,5-10.7-3.58-12.22-2.52-2.32,10.58,1.39,13.38,12.08,3.57,15.86,3.24,1.79-7.31,3.73-7.48,9.06.61,17.91-3.74,10-7.55,11-8.22,1.82-1.54,1.13-1.59-.65.51-3-.79a13,13,0,0,0-6.58-1.28c-1.14.1-2.48-2,.35-5.33s7.74-7.83,6.62-12.81-2.84-14.18-4.12-18.34-4.33-7.24-5.4-6.34,1.75,4.24.56,9.19-7,12.2-8.21,15.71C1085.59,1918.31,1084.77,1919.54,1084.78,1917Z" transform="translate(-888.28 -1868.83)"/><path d="M1038.13,2112.72s-9-8-10.74-15.09-4.94-15-9.88-18.15-17.71-12.78-26-16-8.92-.82-5.08,2.33c8,6.53,9.29,11.9,10.89,17.71s3,21.34,10.31,28.46,12.63,11.32,12.78,14.23a4.34,4.34,0,0,1-2.18,4.06s-8.28,3.78-10.75,3.92-2.9,2.47-.87,8.13,5.38,8.42,11.33,7.55,5.37.29,6.39-3.92-.44-6.82,2.17-8.13,4.65-2.76,7-1.88,19.46,16.55,27.73,17.85,7.55,0,12.35,2.91,14.08,15.24,17.13,14.08-3.49-10.6-8-18.15-11-18-14.66-19.6-16.84-4.5-18.44-8.57a8.3,8.3,0,0,1,3.63-2.75c2.18-.73,4.21-.29,6.24-1.46a7.51,7.51,0,0,1,4.5-.72,6,6,0,0,0-2.76-1.6c-1.3-.14-3.33-5.66-9.14-5.23s-7.7,1-9.44,1A17.13,17.13,0,0,1,1038.13,2112.72Z" transform="translate(-888.28 -1868.83)"/><path d="M921.4,2045.9a17,17,0,0,1-1.76-10.49c.78-6.46,1.66-12.22-.23-16.22s-7.42-14.36-9.36-22.58-3.81-15.4-5.17-15.75-8.27,16.45-7.06,27.63,2.93,13.12,3.44,16.35-1.27,5.87-1,12.76,2.75,14.33,2.92,15.66-1.54,3.09-3.2,4.31-6,2.58-8.08,3.17-3.85.58-3.64,1.68.6,4.27,2.31,5.79a10.13,10.13,0,0,0,5.67,2.07c1.41.12,2.89-4.64,4.61-4.92s9.57-2,11-1.8,5,3.1,10.6,1.91,7.3-.72,10.57.34,10.35,4.74,11.16,4.61-.82-3.57-2.43-5.11c-2.34-2.26-3-2.51-4.61-4.28s-5.44-4.57-7-4.44c0,0,1.94-3.52,4.22-4.81s4.48-3.51,5.68-3.75,3.23-.19,3.54-.6-4.17-1.23-4.17-1.23-1.07-3-6.78-3.34S923.25,2045.37,921.4,2045.9Z" transform="translate(-888.28 -1868.83)"/><path d="M1003.54,2331c-1.9-.85-2.38-.84-3.71-1.57s-4.27-1.56-5.18-1.14a9.61,9.61,0,0,1,1.49-3.82c1.09-1.27,1.93-3.1,2.6-3.5s1.9-.82,2-1.13-2.77.17-2.77.17-1.3-1.56-4.82-.53-5.13,3.57-6.13,4.3a11,11,0,0,1-3.35-5.94c-.94-4.06-1.67-7.71-3.68-9.71s-7.61-7-10.58-11.55-5.65-8.44-6.55-8.35-1.38,11.71,1.79,18.18,4.63,7.25,5.65,9.09.51,3.81,2.2,7.9,4.79,8,5.18,8.78-.25,2.2-1,3.29a21.73,21.73,0,0,1-4.17,3.68c-1.11.81-2.19,1.19-1.82,1.81s1.29,2.44,2.65,3a6.58,6.58,0,0,0,3.87,0c.87-.24.72-3.43,1.69-4s5.32-3.3,6.24-3.49,3.7.77,6.8-1.16,4.23-2,6.43-2.11,7.27.59,7.73.34S1004.85,2331.53,1003.54,2331Z" transform="translate(-888.28 -1868.83)"/><path d="M1176.67,2058.8s-1.72-2.2-3.87-1.67-3.6,1.29-4.89,1.19-6.56-1.19-8.28-6.46.64-13.44-3.76-15.27-16.57-4.19-30.44-2.79-15,1.07-10.65,4.3,11.51,4.19,13.88,4.19,7.53.54,9.57,2.26,3.2,5.7,6.33,11.4,7,11.94,6.79,13.87-2.69,4.31-5.49,5.27-5.16,1.51-4.62,2.48,3.55,2.25,4.84,3.22,3,2.58,3.76,1.51,2.48-4.52,5.7-5.49,5.06-.53,10.33-3.55,8.58-7.87,9.23-8.62,2.81.56,3.89,1.85,2.58,4.73,5.59,7,4,6.24,6.24,6.88,1.39-9.14,1.29-14-.54-7.2-2.16-9.57-3.44-2.9-4.83-1.93S1178.39,2058.69,1176.67,2058.8Z" transform="translate(-888.28 -1868.83)"/></g></svg>