<svg id="objets" xmlns="http://www.w3.org/2000/svg" viewBox="0 0 705.17 649.43"><title>birds_2</title><g id="Oiseaux"><path d="M282.53,2110s-8-3.15-11.65-2.07-3.27,3.22-4.64,3.4-3.36,1-2.32,1.39,2.46.48,3.16,1.29,4.4,5.41,7.27,6.74,4.59,1.5,3.54,2.63-5.8,6.84-10.61,7.47-10.3,1.34-12.1,5.17-3.5,14-5.57,20.52-3.81,25.91-3.22,32.49.35,8.87,2.6,9.77,9.51-8.22,10.9-14.39,3.37-17,7.74-21.77,23.43-17.82,27.47-20.54a16.17,16.17,0,0,0,5.56-6.32s5.86,2.07,9.18,3.06c2,.6,8.42,6.36,9.47,8.35s1.87,3.09,3.57,1.8a29.46,29.46,0,0,0,5.19-5.07c1.48-1.92,4-6.11,2.29-7s-4.58-1.4-7.66-2.6-5.78-3.5-8.2-5.71a12.9,12.9,0,0,1-3.51-5.53c-.05-.4,5.49-11,6-19.28s4-18.49,5.3-20.66,15.41-13.45,19.23-17.8,8.76-9.4,1.63-9-26.2,7.27-33.66,11.31-14.29,6.78-14.39,12.12,1.9,12.53,0,17.56S287.11,2110.4,282.53,2110Z" transform="translate(-176.91 -1549.43)"/><path d="M860.18,1679.21c0-.36-.51-12.53-3.16-16.46s-12.85-15.15-18-20.94-11.26-11.38-12.36-10.7,5.16,7.51,5.53,11.86a53.94,53.94,0,0,0,2.94,12.56c1.22,3.47,4.43,6,4.11,8.88s.27,8.4,3.07,16.81,4.55,13.91,4.68,18.06.39,5.85-4,5-10.69-3.57-12.21-2.52-2.32,10.59,1.38,13.39,12.08,3.57,15.86,3.24,1.79-7.31,3.74-7.48,9,.6,17.91-3.74,10-7.56,10.94-8.22,1.83-1.54,1.13-1.6-.64.52-3-.78a12.87,12.87,0,0,0-6.57-1.28c-1.15.1-2.48-2,.35-5.34s7.74-7.82,6.62-12.8-2.85-14.18-4.13-18.34-4.32-7.24-5.39-6.34,1.75,4.23.56,9.18-7,12.21-8.22,15.72C861,1680.53,860.17,1681.75,860.18,1679.21Z" transform="translate(-176.91 -1549.43)"/><path d="M506.59,1702.74s-1.92-6.64-6.31-11.09-6.92-7-7.93-5.93-.44,3.36-.79,4.26-2.58.81-4.55-.46-4.41-3.26-7.07-3.45-4.81.72-5.52.47a3,3,0,0,0-2.38,0c-.58.42,2.27.94,3,2.43a7.39,7.39,0,0,1,.85,2.72s-2.84-3-5.39-1.13-3.39,3.26-7.09,5.76-23.07,17.8-26.28,21.64,2.12,1.23,4,.07,19-.88,28.82-9c3.59-3,13.42,1.61,17.28.63s7.59-1.67,8.64-1.85,7.81,7.32,9.07,10.85,7.37-.1,8.37-5.46.3-6.31-.75-6.38a33.85,33.85,0,0,1-8.84-2.58c-2.63-1.37-1.24-2.21-.49-1.81S506.05,1703.78,506.59,1702.74Z" transform="translate(-176.91 -1549.43)"/><path d="M627.47,1796.69s-10.21-6.42-14.91-6.92-8-.13-7.53,1.78,1.41,7.38-.11,9.33-1.3,3-3.62.79-3-5.78-4.73-4.13-.85,3.71-2.76,3.16-1.78-.61-2.66-.53a10.44,10.44,0,0,1-2.44-.55c-.9-.15,1,.93,1.32,1.48s1,3.69,1.93,5a15.69,15.69,0,0,1,1.58,3s-1.65,4.13-4.22,10-3.78,8.92,0,5.85,2.16-3.28,5.3-5,5.62-3.93,6.26-5.27c0,0,5.72,3,8.16,2.51s3.23,2.57,5.36,4.17,4.75,2.22,7.89-1.11,1.25-6.31.15-6.75-5-.39-6.89-1.16-3.89-3-1.56-2.75,5.45-5.38,4.41-7.29-3.09-5.6-.44-5.82S625.87,1798.29,627.47,1796.69Z" transform="translate(-176.91 -1549.43)"/><path d="M408,1881a13.07,13.07,0,0,0-5.12-1.69,6.13,6.13,0,0,0-3.31.91,4.34,4.34,0,0,1-2,.58c-.65,0,.07.39.84.78s1.56,2.07,2.92,3.17,4.8,6.55,8.23,8.24,7.59,2.07,9.79,3.3,4.21,4.8,5.25,5.19,3.83-3.5,4.8-4.86-1.88-2.73-3.89-2.92-4.15-2-3.05-2.53,8.23-11,9.47-14.19,2.65-15.43,4.79-19.19,1.36-12.06.52-12.38-5.64,7-7.58,9.53-2.9,4-3.29,4-.93-1.82-.93-3.7.46-4.6-4.21,1.43-10.05,9.14-9.72,12.31a44.82,44.82,0,0,1,0,8.3,32.66,32.66,0,0,1-.78,4.54A12.67,12.67,0,0,1,408,1881Z" transform="translate(-176.91 -1549.43)"/><path d="M605.54,2043.5s.21-4.81,8.1-9.89,21.34-18.07,22.5-21.29,5.17-8.62,5.62-10.06,2.58,2.32.36,7-4.87,9.82-5.6,12.84-4.6,13.49-13.62,18.09-13.36,7.11-12.92,8.29a4.11,4.11,0,0,0,4.57,2.09c2.09-.55,7.51-3,8.11-1.87s-1.83,12.09-8.47,14.71-14.1.72-15.12-.09,4.67-2.24,3.66-4.28-3.94-.77-5.79-2.1-6.5-.17-7.72,0,.49-1.13.49-1.13-9.84,1.6-13.91,2.38-14-.06-16.84,1-27,1.13-28.15-.72c-.76-1.16,3.63-.56,7.49-.56s16.19-1.29,20.71-3.51a84.68,84.68,0,0,1,14.17-5.51c3-.65,12.1.61,15.65.66a47.47,47.47,0,0,0,5.53-.18,17.07,17.07,0,0,1,3.85-4C600.08,2044.29,605.54,2043.5,605.54,2043.5Z" transform="translate(-176.91 -1549.43)"/><path d="M807.23,1911.6c1.9-.84,2.38-.84,3.71-1.56s4.27-1.56,5.18-1.15a9.53,9.53,0,0,0-1.49-3.81c-1.09-1.28-1.93-3.1-2.6-3.51s-1.91-.82-2-1.13,2.77.17,2.77.17,1.3-1.55,4.82-.53,5.13,3.58,6.12,4.3a11,11,0,0,0,3.36-5.93c.94-4.06,1.67-7.72,3.68-9.72s7.61-7,10.57-11.54,5.66-8.44,6.56-8.35,1.38,11.71-1.79,18.17-4.63,7.26-5.65,9.09-.52,3.81-2.2,7.9-4.79,8-5.18,8.79.25,2.19,1,3.29a22.07,22.07,0,0,0,4.17,3.68c1.1.8,2.19,1.19,1.82,1.8s-1.29,2.44-2.65,3a6.57,6.57,0,0,1-3.87,0c-.87-.23-.72-3.43-1.69-4s-5.33-3.31-6.24-3.49-3.7.77-6.8-1.16-4.24-2-6.44-2.11-7.26.59-7.72.33S805.92,1912.18,807.23,1911.6Z" transform="translate(-176.91 -1549.43)"/><path d="M192.6,1574.86s1.72-2.21,3.87-1.67,3.6,1.29,4.89,1.18,6.56-1.18,8.28-6.45-.64-13.44,3.76-15.27,16.57-4.19,30.44-2.8,15,1.08,10.64,4.31-11.5,4.19-13.87,4.19-7.53.54-9.57,2.26-3.2,5.7-6.33,11.4-7,11.94-6.79,13.87,2.69,4.3,5.49,5.27,5.16,1.51,4.62,2.47-3.55,2.26-4.84,3.23-3,2.58-3.76,1.51-2.48-4.52-5.7-5.49-5.06-.54-10.33-3.55-8.59-7.87-9.23-8.62-2.81.56-3.89,1.85-2.58,4.73-5.59,7-4,6.23-6.24,6.88-1.39-9.14-1.29-14,.54-7.21,2.15-9.57,3.45-2.9,4.84-1.94S190.88,1574.75,192.6,1574.86Z" transform="translate(-176.91 -1549.43)"/></g></svg>