<svg id="objets" xmlns="http://www.w3.org/2000/svg" viewBox="0 0 1360.14 286.03"><title>fils_2</title><g id="Fils"><path d="M82.15,2953.22c-29.89,0-57.4-.32-82.26-.82l.22-11c286.37,5.73,845.55-13.56,1359.89-205.22l0,13.14c-228.89,85.3-488.92,142.67-776.6,175.54A4465.21,4465.21,0,0,1,82.15,2953.22Z" transform="translate(0.12 -2736.19)"/><path d="M88.3,3022.22c-32.3,0-61.89-.37-88.42-.94l.24-11c285.87,6.17,844.36-13,1359.9-203.61l0,12c-229.72,84.94-490.5,143.72-778.88,176.08A4463,4463,0,0,1,88.3,3022.22Z" transform="translate(0.12 -2736.19)"/><path d="M389.29,2848.65c-1.84-4.51-8.09-11.48-8.09-11.48,2.08,1.13,10.72,0,10.72,0a10.71,10.71,0,0,1-6.21-3.61c9.84,1,15.37-4.61,15.37-4.61-4.51.92-9.84-1.85-9.84-1.85,8.61,0,18.56-7.58,18.56-7.58-3.9,1.12-14.87,0-14.87,0,9.23-.62,16.4-10.56,16.4-10.56-4.81,1.95-21.42,2.05-30.44.92-5.61-.7-13.81,9.12-13.81,9.12-5,5.8-8.69,0-8.69,0a9.64,9.64,0,0,1-1.13-3.53c-.65-3.71-2.92-4.93-2.92-4.93a10.4,10.4,0,0,0-6.1-1.89,10.1,10.1,0,0,0-7.23,2.86c-1.44-.45-5.79-1.55-9.24.41l3.44,2s0,1,.38,1.31,2.25,1.26,3.44,1.94a7.51,7.51,0,0,0,3.64,5.22c1.55,1,4.79,2.77,5.11,7.16.36,5,2,9,9.84,16.1,13.14,11.85,25.63,9.63,25.63,9.63,4,10.66,19.78,25.42,19.78,25.42-.82-1-5.33-10.86-5.33-10.86,4.83,4.89,15.12,9.21,17.45,10.16-4.66-2.15-13.4-14.57-13.4-14.57,2.92,2.15,16,2.77,16,2.77Z" transform="translate(0.12 -2736.19)"/><path d="M592.31,2879.43s2.18,3.88,1.69,7.39c0,0,.12,13.93,13.32,16.35,0,0,1.9.19,4.59.24l2.08,2.67-2.35,5.13,5.86-4.89-2.22-2.93c1.1,0,2.25-.11,3.4-.23l2.33,3-2.34,5.13,5.85-4.89-2.77-3.67c.4-.07.8-.15,1.19-.25,12.47-2,18.9-6.45,18.9-6.45a29.92,29.92,0,0,1-4.84-.49c1.82-.12,10-3.39,10-3.39-2.6.3-7.88-.87-13.18-2.35,3.53-2,25-14.39,25.78-14.73s-3.39-6.05-13.57-4.48l-15.26,11.14s-23-.48-22.53-4.36c0,0-2.06-9.08-9.57-8,0,0-4.38.6-6.27,3.6a9.81,9.81,0,0,0-5.53,1.58s2.76,1,4.69,1.81A9.44,9.44,0,0,0,592.31,2879.43Z" transform="translate(0.12 -2736.19)"/><path d="M529.32,2871.18c-4.32-2.31-14.27-4.59-19.21,6.67,0,0-1,3.36-2.77,4.15a76.14,76.14,0,0,0-17.53,10.37c-15.81,12.29-36.85,32.52-41.32,41,0,0,27.25-14.81,34-16a38,38,0,0,0,12.82,1.68l-.26,5.26,6.22,6.23-3.2-7.65,2-4.33c.75-.12,1.5-.27,2.27-.45l-.21,4.21,6.22,6.24-3.19-7.65,2-4.36a32.59,32.59,0,0,0,9.84-6.29s11.26-8.69,10.67-19.95c0,0,2.33-5,4.21-9.07,0,0,2.78-1,3.73-1.33,1.21-.35,4.93-1.12,4.93-1.12-1.15-1.2-5.71-3-8.41-3.76A7.71,7.71,0,0,0,529.32,2871.18Z" transform="translate(0.12 -2736.19)"/><path d="M1125.59,2848.36c2.76-1.48,9.12-2.94,12.28,4.26,0,0,.63,2.15,1.77,2.65a48.71,48.71,0,0,1,11.2,6.63c10.11,7.86,23.56,20.79,26.42,26.2,0,0-17.42-9.47-21.71-10.23a24.24,24.24,0,0,1-8.2,1.07l.17,3.36-4,4,2-4.89-1.29-2.77c-.47-.08-1-.17-1.45-.29l.13,2.7-4,4,2-4.89-1.3-2.79a20.77,20.77,0,0,1-6.29-4s-7.2-5.55-6.82-12.75l-2.69-5.79s-1.77-.68-2.38-.86c-.78-.22-3.16-.71-3.16-.71.74-.77,3.65-1.94,5.38-2.41A4.93,4.93,0,0,1,1125.59,2848.36Z" transform="translate(0.12 -2736.19)"/></g></svg>