<svg id="objets" xmlns="http://www.w3.org/2000/svg" viewBox="0 0 202.29 145.16"><defs><style>.cls-1{fill:#575756;}.cls-2{fill:#706f6f;}.cls-3{fill:#9d9d9c;}.cls-4{fill:#ededed;}.cls-5{fill:#fff;}.cls-6{fill:#dadada;}.cls-7{fill:#f9b233;}.cls-8{fill:#008bad;}.cls-9{fill:#c6c6c6;}.cls-10{fill:#e94e1b;}.cls-11{fill:#0597a6;}</style></defs><title>plane</title><g id="Avion"><path class="cls-1" d="M633.18,761a3.75,3.75,0,0,1-3.35-.55,1,1,0,0,1,.32-1.93,3.72,3.72,0,0,1,3.34.54A1,1,0,0,1,633.18,761Z" transform="translate(-439.42 -716.68)"/><rect class="cls-1" x="630.91" y="757.95" width="1.3" height="4.8" transform="translate(-659.75 544.93) rotate(-80.76)"/><ellipse class="cls-2" cx="631.44" cy="761.07" rx="1.39" ry="2.4" transform="translate(-660.55 545.46) rotate(-80.76)"/><path class="cls-3" d="M632.4,761.86c.64-.25.73-.79.2-1.22a2.36,2.36,0,0,0-2.12-.35.65.65,0,0,0-.2,1.22A2.39,2.39,0,0,0,632.4,761.86Z" transform="translate(-439.42 -716.68)"/><path class="cls-4" d="M632.1,761.61c.44-.16.5-.54.13-.84a1.63,1.63,0,0,0-1.45-.23c-.44.16-.5.54-.13.84A1.63,1.63,0,0,0,632.1,761.61Z" transform="translate(-439.42 -716.68)"/><rect class="cls-2" x="628.18" y="755.63" width="1.28" height="7.87" transform="translate(-796.66 49.44) rotate(-50.76)"/><path class="cls-1" d="M632.76,763.74a3.75,3.75,0,0,1-3.35-.54,1,1,0,0,1,.31-1.94,3.74,3.74,0,0,1,3.35.55A1,1,0,0,1,632.76,763.74Z" transform="translate(-439.42 -716.68)"/><rect class="cls-1" x="630.49" y="760.74" width="1.3" height="4.8" transform="translate(-662.89 546.82) rotate(-80.76)"/><path class="cls-2" d="M632.54,765.11a1,1,0,0,0,.31-1.93,3.75,3.75,0,0,0-3.35-.55,1,1,0,0,0-.31,1.93A3.74,3.74,0,0,0,632.54,765.11Z" transform="translate(-439.42 -716.68)"/><path class="cls-3" d="M632,764.65a.65.65,0,0,0,.19-1.22,2.36,2.36,0,0,0-2.11-.34.65.65,0,0,0-.2,1.22A2.39,2.39,0,0,0,632,764.65Z" transform="translate(-439.42 -716.68)"/><path class="cls-4" d="M631.68,764.41a.45.45,0,0,0,.13-.84,1.63,1.63,0,0,0-1.45-.24.45.45,0,0,0-.14.84A1.66,1.66,0,0,0,631.68,764.41Z" transform="translate(-439.42 -716.68)"/><path class="cls-5" d="M568.13,751.12c-1.75-1.44-3.47-.78-3.83,1.45a7.85,7.85,0,0,0,2.51,6.63c1.76,1.43,3.47.78,3.83-1.45A7.82,7.82,0,0,0,568.13,751.12Z" transform="translate(-439.42 -716.68)"/><path class="cls-6" d="M579.64,744.21c-4.95,2-9.62,4.06-13.95,6.26a38.88,38.88,0,0,0-8.7,6.08c-3,2.81-2.44,4.3,1.72,4.52a39.69,39.69,0,0,0,10.54-1.22q7.35-2.05,14.58-4.59c2.82-1,5.65-2.07,8.45-3.19L588.09,741C585.2,742.05,582.37,743.11,579.64,744.21Z" transform="translate(-439.42 -716.68)"/><path class="cls-7" d="M582.61,745c-2.07-1.75-4.09-1-4.51,1.71a9.4,9.4,0,0,0,3,7.82c2,1.67,4,.91,4.51-1.71A9.21,9.21,0,0,0,582.61,745Z" transform="translate(-439.42 -716.68)"/><path class="cls-7" d="M579.64,744.21l4.19,11c2.82-1,5.65-2.07,8.45-3.19L588.09,741C585.2,742.05,582.37,743.11,579.64,744.21Z" transform="translate(-439.42 -716.68)"/><ellipse class="cls-4" cx="590.19" cy="746.55" rx="3.41" ry="5.91" transform="translate(-665.73 -459) rotate(-20.76)"/><path class="cls-1" d="M590.81,742.73c-1.65-1.35-3.27-.74-3.62,1.37a7.39,7.39,0,0,0,2.38,6.26c1.65,1.36,3.27.74,3.62-1.37A7.4,7.4,0,0,0,590.81,742.73Z" transform="translate(-439.42 -716.68)"/><path class="cls-1" d="M571.28,750.1l9.57-3.63a.61.61,0,0,0-.05-1.15l-9.4-2.67a.62.62,0,0,0-.38,0l-9.57,3.63a.6.6,0,0,0,0,1.15l9.4,2.67A.62.62,0,0,0,571.28,750.1Z" transform="translate(-439.42 -716.68)"/><path class="cls-5" d="M553.15,734.48c-1.75-1.43-3.46-.79-3.83,1.45a7.83,7.83,0,0,0,2.52,6.63c1.75,1.43,3.46.78,3.83-1.45A7.85,7.85,0,0,0,553.15,734.48Z" transform="translate(-439.42 -716.68)"/><path class="cls-6" d="M542.34,739.62a39.63,39.63,0,0,1,8.38-5.79c4.33-2.2,9-4.29,13.94-6.26q4.11-1.65,8.45-3.19l4.19,11q-4.2,1.68-8.45,3.19-7.23,2.55-14.57,4.59a46.27,46.27,0,0,1-6.24,1.06Z" transform="translate(-439.42 -716.68)"/><path class="cls-7" d="M567.63,728.31c-2.07-1.75-4.09-1-4.51,1.71a9.4,9.4,0,0,0,3,7.82c2,1.67,4,.91,4.51-1.71A9.16,9.16,0,0,0,567.63,728.31Z" transform="translate(-439.42 -716.68)"/><path class="cls-7" d="M564.66,727.57l4.19,11q4.24-1.51,8.45-3.19l-4.19-11Q568.78,725.93,564.66,727.57Z" transform="translate(-439.42 -716.68)"/><path class="cls-4" d="M576,725.14c-2.07-1.68-4.09-.92-4.51,1.71a9.23,9.23,0,0,0,3,7.82c2.06,1.69,4.08.92,4.51-1.71A9.26,9.26,0,0,0,576,725.14Z" transform="translate(-439.42 -716.68)"/><path class="cls-1" d="M575.83,726.09c-1.65-1.35-3.27-.74-3.61,1.37a7.38,7.38,0,0,0,2.37,6.26c1.66,1.36,3.28.74,3.62-1.37A7.4,7.4,0,0,0,575.83,726.09Z" transform="translate(-439.42 -716.68)"/><path class="cls-1" d="M556.3,733.46l9.57-3.63a.6.6,0,0,0,0-1.15l-9.4-2.67a.62.62,0,0,0-.38,0l-9.57,3.63a.61.61,0,0,0,0,1.15l9.4,2.67A.62.62,0,0,0,556.3,733.46Z" transform="translate(-439.42 -716.68)"/><polygon class="cls-5" points="116.04 54.21 151.43 40.79 107.65 0 105.19 0.93 104.43 1.23 90.09 6.67 92.53 11.15 103.16 30.61 104.08 32.3 112.74 48.15 116.04 54.21"/><polygon class="cls-6" points="138.54 39.49 138.83 39.23 139.13 38.97 105.19 0.93 104.43 1.23 138.54 39.49"/><rect class="cls-6" x="549.84" y="750.63" width="21.24" height="0.77" transform="translate(-667.02 -472.72) rotate(-20.51)"/><rect class="cls-6" x="539.1" y="732.61" width="16.77" height="0.77" transform="translate(-678.55 -450.86) rotate(-22.54)"/><polygon class="cls-7" points="103.16 30.61 107.19 29.04 95.84 10.01 92.53 11.15 103.16 30.61"/><polygon class="cls-7" points="112.74 48.15 117.23 46.28 108.12 30.78 104.08 32.3 112.74 48.15"/><polygon class="cls-5" points="19.14 67.72 28.33 84.55 47.89 77.14 28.18 64.29 19.14 67.72"/><polygon class="cls-7" points="28.68 78.35 31.67 74.69 24.37 68.73 19.05 70.48 28.68 78.35"/><path class="cls-5" d="M559,808.13c-1.75-1.43-3.47-.78-3.83,1.46a7.83,7.83,0,0,0,2.52,6.63c1.75,1.43,3.46.78,3.83-1.45A7.86,7.86,0,0,0,559,808.13Z" transform="translate(-439.42 -716.68)"/><path class="cls-8" d="M570.51,801.22c-4.94,2-9.62,4.06-13.94,6.26a39.38,39.38,0,0,0-8.71,6.08c-3,2.81-2.44,4.31,1.72,4.53a39.81,39.81,0,0,0,10.55-1.22q7.35-2.05,14.57-4.59c2.83-1,5.65-2.07,8.45-3.19L579,798Q574.63,799.59,570.51,801.22Z" transform="translate(-439.42 -716.68)"/><path class="cls-7" d="M573.48,802c-2.07-1.75-4.09-1-4.51,1.71a9.41,9.41,0,0,0,3,7.82c2,1.67,4,.9,4.51-1.72A9.14,9.14,0,0,0,573.48,802Z" transform="translate(-439.42 -716.68)"/><path class="cls-7" d="M570.51,801.22l4.19,11.06c2.83-1,5.65-2.07,8.45-3.19L579,798Q574.63,799.59,570.51,801.22Z" transform="translate(-439.42 -716.68)"/><path class="cls-4" d="M581.84,798.8c-2.07-1.69-4.09-.92-4.51,1.71a9.23,9.23,0,0,0,3,7.82c2.06,1.68,4.08.92,4.51-1.71A9.26,9.26,0,0,0,581.84,798.8Z" transform="translate(-439.42 -716.68)"/><path class="cls-1" d="M581.68,799.75c-1.65-1.36-3.27-.74-3.61,1.37a7.38,7.38,0,0,0,2.37,6.26c1.66,1.35,3.28.74,3.62-1.37A7.39,7.39,0,0,0,581.68,799.75Z" transform="translate(-439.42 -716.68)"/><path class="cls-1" d="M562.15,807.12l9.57-3.63a.61.61,0,0,0-.05-1.16l-9.4-2.66a.55.55,0,0,0-.38,0l-9.57,3.62a.61.61,0,0,0,0,1.16l9.4,2.66A.62.62,0,0,0,562.15,807.12Z" transform="translate(-439.42 -716.68)"/><path class="cls-5" d="M536.29,838.06c-1.75-1.43-3.47-.78-3.83,1.45a7.86,7.86,0,0,0,2.51,6.64c1.76,1.43,3.47.78,3.83-1.45A7.83,7.83,0,0,0,536.29,838.06Z" transform="translate(-439.42 -716.68)"/><path class="cls-8" d="M547.8,831.15c-4.95,2-9.62,4.06-13.94,6.26a39.38,39.38,0,0,0-8.71,6.08c-3,2.81-2.44,4.31,1.72,4.53a39.69,39.69,0,0,0,10.54-1.22q7.35-2.06,14.58-4.59c2.82-1,5.65-2.07,8.45-3.19L556.25,828Q551.92,829.52,547.8,831.15Z" transform="translate(-439.42 -716.68)"/><path class="cls-7" d="M550.77,831.9c-2.07-1.75-4.09-1-4.51,1.71a9.38,9.38,0,0,0,3,7.81c2,1.68,4,.91,4.51-1.71A9.19,9.19,0,0,0,550.77,831.9Z" transform="translate(-439.42 -716.68)"/><path class="cls-7" d="M547.8,831.15,552,842.21c2.82-1,5.65-2.07,8.45-3.19L556.25,828Q551.92,829.52,547.8,831.15Z" transform="translate(-439.42 -716.68)"/><path class="cls-4" d="M559.13,828.73c-2.07-1.69-4.09-.92-4.52,1.71a9.23,9.23,0,0,0,3,7.81c2.06,1.69,4.08.92,4.51-1.71A9.22,9.22,0,0,0,559.13,828.73Z" transform="translate(-439.42 -716.68)"/><path class="cls-1" d="M559,829.67c-1.65-1.35-3.27-.73-3.62,1.37a7.44,7.44,0,0,0,2.38,6.27c1.65,1.35,3.27.74,3.62-1.37A7.42,7.42,0,0,0,559,829.67Z" transform="translate(-439.42 -716.68)"/><path class="cls-1" d="M539.44,837.05l9.57-3.63a.61.61,0,0,0,0-1.16l-9.4-2.66a.62.62,0,0,0-.38,0l-9.57,3.63a.61.61,0,0,0,0,1.16l9.4,2.66A.62.62,0,0,0,539.44,837.05Z" transform="translate(-439.42 -716.68)"/><path class="cls-4" d="M522.22,778.7c-4.43-3.62-8.77-2-9.69,3.67s1.93,13.17,6.36,16.79,8.77,2,9.69-3.68S526.65,782.32,522.22,778.7Z" transform="translate(-439.42 -716.68)"/><path class="cls-5" d="M467.1,807.6c20-.44,42.75-.31,57.95-6.8l93.37-35.39,3.2-1.34c8.56-3.72,14.86-8.06,19.32-15.44,2.36-3.89-1-8.22-5.66-8.4-2.62-.1-4.85-.28-6.84-.47-1.55-.14-2.94-.28-4.24-.36-.71-.06-1.41-.11-2.1-.13a25.71,25.71,0,0,0-11,1.77l-.32.1-94.76,35.93-51.49,23.16C459.85,802.4,462.16,808,467.1,807.6Z" transform="translate(-439.42 -716.68)"/><path class="cls-5" d="M450.47,832.66l9-3.43,24.17-27.52a1,1,0,0,0-1.08-1.56c-5.75.59-10.87,3.14-15.91,6l-1.55,2.53-12.26,20Z" transform="translate(-439.42 -716.68)"/><path class="cls-8" d="M439.42,785.27l2.8,1.85,19.39,12.73,3.07,2c6.68-1.27,16.14-4.36,18.83-6.38a.79.79,0,0,0-.22-1.37l-34.83-12.28Z" transform="translate(-439.42 -716.68)"/><path class="cls-8" d="M544.78,789.48c2.07,1.69,21.75-3.33,35.4-8.51s16.09-8.54,14-10.23-7.87-1.06-21.52,4.11S542.71,787.79,544.78,789.48Z" transform="translate(-439.42 -716.68)"/><path class="cls-5" d="M506.47,861.85,519,857.07l1.33-.51,3.66-1.39,62.74-80.29a.22.22,0,0,0-.13-.34,20.26,20.26,0,0,0-8.42,1.15c-.42.1-.81.25-1.23.39-7,2.32-15.77,6.75-24.41,10.89a.71.71,0,0,0-.39.35L548,794.19l-6.38,10.41L530.9,822l-2.17,3.53-7.27,11.87-9.82,16,0,0Z" transform="translate(-439.42 -716.68)"/><path class="cls-1" d="M622.62,751.89c6-4,6.65-9.15,5.82-12.13-1.55-.14-2.94-.28-4.24-.36,1.62,1.61-.23,7.78-3.76,10.63C621.18,750.65,621.91,751.27,622.62,751.89Z" transform="translate(-439.42 -716.68)"/><path class="cls-9" d="M586.76,766.33a4.43,4.43,0,0,0,4,.65l28.47-10.89a1.22,1.22,0,0,0,.38-2.28h0a4.42,4.42,0,0,0-3.95-.64l-28.48,10.89a1.21,1.21,0,0,0-.37,2.27Z" transform="translate(-439.42 -716.68)"/><path class="cls-9" d="M541.13,783.57a4.45,4.45,0,0,0,4,.64l14.18-5.45a1.22,1.22,0,0,0,.37-2.28h0a4.43,4.43,0,0,0-3.94-.64l-14.19,5.45a1.22,1.22,0,0,0-.37,2.28Z" transform="translate(-439.42 -716.68)"/><path class="cls-1" d="M555.87,778.44a1.77,1.77,0,0,0,1.56.26h0c.47-.18.53-.58.14-.9l-.73-.6a1.72,1.72,0,0,0-1.55-.25h0a.48.48,0,0,0-.15.89Z" transform="translate(-439.42 -716.68)"/><path class="cls-1" d="M551.59,780.07a1.75,1.75,0,0,0,1.55.25h0c.47-.18.54-.58.15-.9l-.73-.6a1.77,1.77,0,0,0-1.56-.25h0c-.47.18-.53.58-.14.9Z" transform="translate(-439.42 -716.68)"/><path class="cls-1" d="M547.31,781.69a1.72,1.72,0,0,0,1.55.25h0a.48.48,0,0,0,.15-.89l-.74-.6a1.72,1.72,0,0,0-1.55-.25h0c-.47.17-.54.57-.15.89Z" transform="translate(-439.42 -716.68)"/><path class="cls-1" d="M543,783.31a1.74,1.74,0,0,0,1.56.26h0c.47-.18.53-.58.14-.9l-.73-.6a1.72,1.72,0,0,0-1.55-.25h0c-.47.18-.54.58-.15.9Z" transform="translate(-439.42 -716.68)"/><path class="cls-1" d="M615.8,755.66a1.75,1.75,0,0,0,1.55.26h0c.47-.18.54-.58.15-.9l-.74-.6a1.71,1.71,0,0,0-1.55-.25h0a.47.47,0,0,0-.14.89Z" transform="translate(-439.42 -716.68)"/><path class="cls-1" d="M611.51,757.29a1.77,1.77,0,0,0,1.56.25h0c.47-.18.53-.58.14-.9l-.73-.6a1.75,1.75,0,0,0-1.55-.25h0c-.47.18-.54.58-.15.9Z" transform="translate(-439.42 -716.68)"/><path class="cls-1" d="M607.23,758.91a1.72,1.72,0,0,0,1.55.25h0a.48.48,0,0,0,.15-.89l-.73-.6a1.77,1.77,0,0,0-1.56-.26h0c-.47.18-.53.58-.14.9Z" transform="translate(-439.42 -716.68)"/><path class="cls-1" d="M603,760.54a1.74,1.74,0,0,0,1.55.25h0a.48.48,0,0,0,.15-.9l-.74-.6a1.72,1.72,0,0,0-1.55-.25h0c-.47.18-.54.58-.15.9Z" transform="translate(-439.42 -716.68)"/><path class="cls-1" d="M598.66,762.16a1.74,1.74,0,0,0,1.56.25h0c.47-.18.53-.58.14-.9l-.73-.59a1.76,1.76,0,0,0-1.55-.26h0c-.47.18-.54.58-.15.9Z" transform="translate(-439.42 -716.68)"/><path class="cls-1" d="M594.38,763.78a1.75,1.75,0,0,0,1.55.26h0c.47-.18.54-.58.15-.9l-.74-.6a1.71,1.71,0,0,0-1.55-.25h0c-.47.18-.53.58-.14.89Z" transform="translate(-439.42 -716.68)"/><path class="cls-1" d="M590.09,765.41a1.77,1.77,0,0,0,1.56.25h0c.47-.18.53-.58.14-.9l-.73-.6a1.75,1.75,0,0,0-1.55-.25h0c-.47.18-.54.58-.15.9Z" transform="translate(-439.42 -716.68)"/><path class="cls-2" d="M603.37,765.16a4.48,4.48,0,0,1-4.59-.49,12.48,12.48,0,0,1-3.81-3.51c-.77-1.11-.56-1.8-.24-2.18a1.84,1.84,0,0,1,.86-.56c1.55-.56,2.77-1,4.47.77a19.25,19.25,0,0,0,3.75,3.06,1.67,1.67,0,0,1,.91,1.13,1.29,1.29,0,0,1-.31,1.07A2.44,2.44,0,0,1,603.37,765.16Zm-8-4.3a12,12,0,0,0,3.65,3.36,4,4,0,0,0,4.14.45,2.08,2.08,0,0,0,.83-.55.87.87,0,0,0,.2-.64,1.29,1.29,0,0,0-.67-.79,18.91,18.91,0,0,1-3.85-3.14c-1.47-1.53-2.39-1.19-4-.62a1.32,1.32,0,0,0-.6.38C594.84,759.67,594.93,760.19,595.39,760.86Z" transform="translate(-439.42 -716.68)"/><path class="cls-7" d="M442.22,787.12l19.39,12.73,4.76-1.74a.62.62,0,0,0,.07-1.11l-19.69-11.45a.6.6,0,0,0-.54,0Z" transform="translate(-439.42 -716.68)"/><polygon class="cls-7" points="13.48 112.03 17.73 110.47 31.51 89.61 25.73 92.03 13.48 112.03"/><path class="cls-6" d="M519,857.07l1.33-.51,14.54-20.33,24.71-34.54,18.6-26c-.42.1-.81.25-1.23.39L559.17,801l-.73,1.06-24,33.56-.68,1Z" transform="translate(-439.42 -716.68)"/><rect class="cls-6" x="543.48" y="803.42" width="16.35" height="0.77" transform="translate(-660.38 -507.43) rotate(-17.96)"/><rect class="cls-6" x="523.03" y="836.95" width="11.97" height="0.77" transform="translate(-630.41 -559.48) rotate(-14.35)"/><polygon class="cls-7" points="72.21 136.76 76.82 135.01 94.61 106.86 89.31 108.87 72.21 136.76"/><polygon class="cls-7" points="91.49 105.33 96.83 103.07 114.26 75.33 108.55 77.51 91.49 105.33"/><path class="cls-10" d="M525,793.85a9.61,9.61,0,0,0-1.84-2,10.55,10.55,0,0,0-1.33-.88l4.12-1.56-1.72-1.4,10.54.11-3.67,5.5-1.71-1.4Z" transform="translate(-439.42 -716.68)"/><path class="cls-11" d="M520.27,798.08l1.09.9a5.39,5.39,0,0,1-2.46-.27A14.68,14.68,0,0,1,520.27,798.08Z" transform="translate(-439.42 -716.68)"/><path class="cls-11" d="M519.87,797.76a11.46,11.46,0,0,0-1.57.76,16.51,16.51,0,0,1-2.33-1.08c.73-.35,1.5-.68,2.3-1Z" transform="translate(-439.42 -716.68)"/><path class="cls-11" d="M511.94,794.28c.89-.25,1.77-.54,2.62-.86l1.45,1.19-2.67,1A12.94,12.94,0,0,1,511.94,794.28Z" transform="translate(-439.42 -716.68)"/><path class="cls-11" d="M517.87,796.12c-.84.33-1.64.68-2.37,1a17.08,17.08,0,0,1-1.76-1.21l2.68-1Z" transform="translate(-439.42 -716.68)"/><path class="cls-11" d="M510.66,792.35a17.31,17.31,0,0,0,1.9-.56l1.59,1.3c-.81.3-1.66.58-2.53.82A5.89,5.89,0,0,1,510.66,792.35Z" transform="translate(-439.42 -716.68)"/><path class="cls-11" d="M510,792a7.37,7.37,0,0,1-.77.14,2.63,2.63,0,0,1,.72-1A2.09,2.09,0,0,0,510,792Z" transform="translate(-439.42 -716.68)"/><path class="cls-11" d="M511.05,790.56l1.1.9c-.53.18-1.07.35-1.62.48A1.12,1.12,0,0,1,511.05,790.56Z" transform="translate(-439.42 -716.68)"/><path class="cls-11" d="M515.51,797.67a15.66,15.66,0,0,0,2.35,1.12l-.54.39a14.31,14.31,0,0,1-3-.84C514.67,798.11,515.08,797.89,515.51,797.67Z" transform="translate(-439.42 -716.68)"/><path class="cls-11" d="M523.64,797.17a2.41,2.41,0,0,1-.38.66,2.79,2.79,0,0,1-.34.35,2,2,0,0,0,0-.87Z" transform="translate(-439.42 -716.68)"/><path class="cls-11" d="M517.39,791.69a15.66,15.66,0,0,0-2.35-1.12c.2-.13.38-.26.54-.38a13.72,13.72,0,0,1,3,.83C518.23,791.25,517.82,791.48,517.39,791.69Z" transform="translate(-439.42 -716.68)"/><path class="cls-11" d="M516.93,791.92c-.71.34-1.48.67-2.29,1L513,791.6a12.58,12.58,0,0,0,1.56-.75A14.52,14.52,0,0,1,516.93,791.92Z" transform="translate(-439.42 -716.68)"/><path class="cls-11" d="M513.34,790.06a11.86,11.86,0,0,1,1.56,0l-.42.27C514.08,790.24,513.7,790.14,513.34,790.06Z" transform="translate(-439.42 -716.68)"/><path class="cls-11" d="M514,790.65a14.46,14.46,0,0,1-1.36.63l-1.08-.89A5.42,5.42,0,0,1,514,790.65Z" transform="translate(-439.42 -716.68)"/><path class="cls-11" d="M521.86,798.81l-1.11-.91c.53-.18,1.07-.35,1.63-.48A1.11,1.11,0,0,1,521.86,798.81Z" transform="translate(-439.42 -716.68)"/><path class="cls-11" d="M521,795.08c-.9.25-1.77.54-2.62.86l-1.45-1.18,2.68-1A13.74,13.74,0,0,1,521,795.08Z" transform="translate(-439.42 -716.68)"/><path class="cls-11" d="M515,793.24c.84-.33,1.63-.68,2.36-1a17.23,17.23,0,0,1,1.77,1.21l-2.67,1Z" transform="translate(-439.42 -716.68)"/><path class="cls-11" d="M520.35,797.57l-1.6-1.3c.83-.3,1.68-.58,2.54-.83a5.82,5.82,0,0,1,1,1.57A16.68,16.68,0,0,0,520.35,797.57Z" transform="translate(-439.42 -716.68)"/><path class="cls-11" d="M508.37,792.71l.24,0a3.38,3.38,0,0,0,.36,1.87l-.68.13A2.86,2.86,0,0,1,508.37,792.71Z" transform="translate(-439.42 -716.68)"/><path class="cls-11" d="M511.44,794.42a13.28,13.28,0,0,0,1.41,1.39l-1.73.66a7.11,7.11,0,0,1-1.44-1.62C510.27,794.72,510.86,794.58,511.44,794.42Z" transform="translate(-439.42 -716.68)"/><path class="cls-11" d="M519.07,790.75a14,14,0,0,0-3.08-.92h0a14.19,14.19,0,0,1,3.44.69Z" transform="translate(-439.42 -716.68)"/><path class="cls-11" d="M509.47,794.46a3,3,0,0,1-.32-1.83l1-.17a6.28,6.28,0,0,0,1,1.59C510.57,794.2,510,794.34,509.47,794.46Z" transform="translate(-439.42 -716.68)"/><path class="cls-11" d="M523.73,794.4a7,7,0,0,0-1.45-1.68l.74-.28a5.37,5.37,0,0,1,1.45,1.83Z" transform="translate(-439.42 -716.68)"/><path class="cls-11" d="M511,797a12.38,12.38,0,0,0,2.3,1.41l-.42.27a10.38,10.38,0,0,1-2.6-1.4Z" transform="translate(-439.42 -716.68)"/><path class="cls-11" d="M509.18,795a7.26,7.26,0,0,0,1.45,1.7l-.73.28a5.41,5.41,0,0,1-1.46-1.84Z" transform="translate(-439.42 -716.68)"/><path class="cls-11" d="M513.83,798.61a14,14,0,0,0,3.08.92v0a14.79,14.79,0,0,1-3.44-.69Z" transform="translate(-439.42 -716.68)"/><path class="cls-11" d="M519.58,791l.41-.28a10.54,10.54,0,0,1,2.62,1.41l-.73.27A12.15,12.15,0,0,0,519.58,791Z" transform="translate(-439.42 -716.68)"/><path class="cls-11" d="M521.47,794.94a12.34,12.34,0,0,0-1.41-1.38l1.74-.66a7,7,0,0,1,1.42,1.61C522.64,794.64,522.05,794.78,521.47,794.94Z" transform="translate(-439.42 -716.68)"/><path class="cls-11" d="M523.94,794.8l.68-.13a2.89,2.89,0,0,1-.07,2l-.24,0A3.44,3.44,0,0,0,523.94,794.8Z" transform="translate(-439.42 -716.68)"/><path class="cls-11" d="M523.44,794.9a3.07,3.07,0,0,1,.33,1.83c-.35,0-.69.1-1,.17a6.41,6.41,0,0,0-1-1.59C522.34,795.16,522.9,795,523.44,794.9Z" transform="translate(-439.42 -716.68)"/><path class="cls-11" d="M519.14,791.24a12,12,0,0,1,2.25,1.33l-1.73.66a17.64,17.64,0,0,0-1.8-1.27A13.89,13.89,0,0,0,519.14,791.24Z" transform="translate(-439.42 -716.68)"/><path class="cls-11" d="M513.76,798.11a11.39,11.39,0,0,1-2.24-1.32l1.73-.65a18.49,18.49,0,0,0,1.79,1.25C514.59,797.63,514.16,797.87,513.76,798.11Z" transform="translate(-439.42 -716.68)"/><path class="cls-11" d="M518.42,799c.4.13.79.23,1.15.31a9.26,9.26,0,0,1-1.57,0Z" transform="translate(-439.42 -716.68)"/></g></svg>