<svg id="objets" xmlns="http://www.w3.org/2000/svg" viewBox="0 0 202.29 145.16"><defs><style>.cls-1{fill:#575756;}.cls-2{fill:#706f6f;}.cls-3{fill:#9d9d9c;}.cls-4{fill:#ededed;}.cls-5{fill:#fff;}.cls-6{fill:#dadada;}.cls-7{fill:#f9b233;}.cls-8{fill:#008bad;}.cls-9{fill:#c6c6c6;}.cls-10{fill:#e94e1b;}.cls-11{fill:#0597a6;}</style></defs><title>plane</title><g id="Avion"><path class="cls-1" d="M448,761a3.72,3.72,0,0,0,3.34-.55,1,1,0,0,0-.31-1.93,3.75,3.75,0,0,0-3.35.54C446.79,759.7,446.93,760.56,448,761Z" transform="translate(-439.42 -716.68)"/><rect class="cls-1" x="447.17" y="759.7" width="4.8" height="1.3" transform="translate(-555.68 -634.63) rotate(-9.24)"/><ellipse class="cls-2" cx="449.68" cy="761.07" rx="2.4" ry="1.39" transform="translate(-555.77 -634.62) rotate(-9.24)"/><path class="cls-3" d="M448.73,761.86c-.64-.25-.73-.79-.2-1.22a2.34,2.34,0,0,1,2.11-.35.65.65,0,0,1,.2,1.22A2.37,2.37,0,0,1,448.73,761.86Z" transform="translate(-439.42 -716.68)"/><path class="cls-4" d="M449,761.61c-.44-.16-.5-.54-.14-.84a1.63,1.63,0,0,1,1.45-.23c.44.16.5.54.14.84A1.63,1.63,0,0,1,449,761.61Z" transform="translate(-439.42 -716.68)"/><rect class="cls-2" x="448.37" y="758.93" width="7.87" height="1.28" transform="translate(-817.9 -259.3) rotate(-39.24)"/><path class="cls-1" d="M448.37,763.74a3.75,3.75,0,0,0,3.35-.54,1,1,0,0,0-.32-1.94,3.75,3.75,0,0,0-3.35.55A1,1,0,0,0,448.37,763.74Z" transform="translate(-439.42 -716.68)"/><rect class="cls-1" x="447.59" y="762.49" width="4.8" height="1.3" transform="translate(-556.15 -634.5) rotate(-9.24)"/><path class="cls-2" d="M448.59,765.11a1,1,0,0,1-.31-1.93,3.72,3.72,0,0,1,3.34-.55,1,1,0,0,1,.32,1.93A3.75,3.75,0,0,1,448.59,765.11Z" transform="translate(-439.42 -716.68)"/><path class="cls-3" d="M449.15,764.65a.65.65,0,0,1-.2-1.22,2.37,2.37,0,0,1,2.11-.34.65.65,0,0,1,.2,1.22A2.37,2.37,0,0,1,449.15,764.65Z" transform="translate(-439.42 -716.68)"/><path class="cls-4" d="M449.45,764.41a.45.45,0,0,1-.14-.84,1.64,1.64,0,0,1,1.45-.24.45.45,0,0,1,.14.84A1.63,1.63,0,0,1,449.45,764.41Z" transform="translate(-439.42 -716.68)"/><path class="cls-5" d="M513,751.12c1.75-1.44,3.46-.78,3.83,1.45a7.85,7.85,0,0,1-2.52,6.63c-1.75,1.43-3.47.78-3.83-1.45A7.83,7.83,0,0,1,513,751.12Z" transform="translate(-439.42 -716.68)"/><path class="cls-6" d="M501.49,744.21c4.94,2,9.61,4.06,13.94,6.26a38.73,38.73,0,0,1,8.71,6.08c3,2.81,2.43,4.3-1.72,4.52a39.76,39.76,0,0,1-10.55-1.22q-7.35-2.05-14.57-4.59-4.24-1.51-8.45-3.19L493,741Q497.38,742.57,501.49,744.21Z" transform="translate(-439.42 -716.68)"/><path class="cls-7" d="M498.52,745c2.07-1.75,4.09-1,4.51,1.71a9.4,9.4,0,0,1-3,7.82c-2,1.67-4,.91-4.52-1.71A9.19,9.19,0,0,1,498.52,745Z" transform="translate(-439.42 -716.68)"/><path class="cls-7" d="M501.49,744.21l-4.19,11q-4.24-1.51-8.45-3.19L493,741Q497.38,742.57,501.49,744.21Z" transform="translate(-439.42 -716.68)"/><ellipse class="cls-4" cx="490.94" cy="746.55" rx="5.91" ry="3.41" transform="translate(-820.58 224.28) rotate(-69.24)"/><path class="cls-1" d="M490.31,742.73c1.66-1.35,3.28-.74,3.62,1.37a7.41,7.41,0,0,1-2.37,6.26c-1.66,1.36-3.28.74-3.62-1.37A7.42,7.42,0,0,1,490.31,742.73Z" transform="translate(-439.42 -716.68)"/><path class="cls-1" d="M509.85,750.1l-9.57-3.63a.6.6,0,0,1,.05-1.15l9.39-2.67a.65.65,0,0,1,.39,0l9.57,3.63a.61.61,0,0,1,0,1.15l-9.4,2.67A.62.62,0,0,1,509.85,750.1Z" transform="translate(-439.42 -716.68)"/><path class="cls-5" d="M528,734.48c1.75-1.43,3.47-.79,3.83,1.45a7.82,7.82,0,0,1-2.51,6.63c-1.75,1.43-3.47.78-3.83-1.45A7.82,7.82,0,0,1,528,734.48Z" transform="translate(-439.42 -716.68)"/><path class="cls-6" d="M538.78,739.62a39.55,39.55,0,0,0-8.37-5.79c-4.33-2.2-9-4.29-13.94-6.26-2.74-1.1-5.57-2.16-8.46-3.19l-4.19,11c2.8,1.12,5.63,2.18,8.46,3.19q7.22,2.55,14.57,4.59a46,46,0,0,0,6.24,1.06Z" transform="translate(-439.42 -716.68)"/><path class="cls-7" d="M513.49,728.31c2.07-1.75,4.1-1,4.52,1.71a9.43,9.43,0,0,1-3,7.82c-2,1.67-4,.91-4.51-1.71A9.21,9.21,0,0,1,513.49,728.31Z" transform="translate(-439.42 -716.68)"/><path class="cls-7" d="M516.47,727.57l-4.19,11c-2.83-1-5.66-2.07-8.46-3.19l4.19-11C510.9,725.41,513.73,726.47,516.47,727.57Z" transform="translate(-439.42 -716.68)"/><path class="cls-4" d="M505.14,725.14c2.06-1.68,4.08-.92,4.51,1.71a9.26,9.26,0,0,1-3,7.82c-2.07,1.69-4.09.92-4.52-1.71A9.26,9.26,0,0,1,505.14,725.14Z" transform="translate(-439.42 -716.68)"/><path class="cls-1" d="M505.29,726.09c1.66-1.35,3.28-.74,3.62,1.37a7.39,7.39,0,0,1-2.38,6.26c-1.65,1.36-3.27.74-3.61-1.37A7.39,7.39,0,0,1,505.29,726.09Z" transform="translate(-439.42 -716.68)"/><path class="cls-1" d="M524.82,733.46l-9.57-3.63a.61.61,0,0,1,0-1.15l9.4-2.67a.62.62,0,0,1,.38,0l9.57,3.63a.6.6,0,0,1,0,1.15l-9.39,2.67A.65.65,0,0,1,524.82,733.46Z" transform="translate(-439.42 -716.68)"/><polygon class="cls-5" points="86.25 54.21 50.86 40.79 94.64 0 97.09 0.93 97.86 1.23 112.2 6.67 109.76 11.15 99.13 30.61 98.21 32.3 89.55 48.15 86.25 54.21"/><polygon class="cls-6" points="63.75 39.49 63.45 39.23 63.16 38.97 97.09 0.93 97.86 1.23 63.75 39.49"/><rect class="cls-6" x="520.28" y="740.4" width="0.77" height="21.24" transform="translate(-804.59 258.88) rotate(-69.49)"/><rect class="cls-6" x="533.25" y="724.61" width="0.77" height="16.77" transform="matrix(0.38, -0.92, 0.92, 0.38, -787.33, 228.25)"/><polygon class="cls-7" points="99.13 30.61 95.1 29.04 106.45 10.01 109.76 11.15 99.13 30.61"/><polygon class="cls-7" points="89.55 48.15 85.06 46.28 94.17 30.78 98.21 32.3 89.55 48.15"/><polygon class="cls-5" points="183.15 67.72 173.96 84.55 154.4 77.14 174.11 64.29 183.15 67.72"/><polygon class="cls-7" points="173.61 78.35 170.62 74.69 177.92 68.73 183.24 70.48 173.61 78.35"/><path class="cls-5" d="M522.12,808.13c1.76-1.43,3.47-.78,3.83,1.46a7.82,7.82,0,0,1-2.51,6.63c-1.75,1.43-3.47.78-3.83-1.45A7.86,7.86,0,0,1,522.12,808.13Z" transform="translate(-439.42 -716.68)"/><path class="cls-8" d="M510.62,801.22c4.94,2,9.61,4.06,13.94,6.26a39.3,39.3,0,0,1,8.7,6.08c3,2.81,2.44,4.31-1.71,4.53A39.72,39.72,0,0,1,521,816.87q-7.35-2.05-14.57-4.59c-2.83-1-5.66-2.07-8.46-3.19L502.16,798C505.05,799.07,507.88,800.13,510.62,801.22Z" transform="translate(-439.42 -716.68)"/><path class="cls-7" d="M507.64,802c2.07-1.75,4.1-1,4.52,1.71a9.44,9.44,0,0,1-3,7.82c-2,1.67-4,.9-4.51-1.72A9.19,9.19,0,0,1,507.64,802Z" transform="translate(-439.42 -716.68)"/><path class="cls-7" d="M510.62,801.22l-4.19,11.06c-2.83-1-5.66-2.07-8.46-3.19L502.16,798C505.05,799.07,507.88,800.13,510.62,801.22Z" transform="translate(-439.42 -716.68)"/><path class="cls-4" d="M499.29,798.8c2.06-1.69,4.08-.92,4.51,1.71a9.26,9.26,0,0,1-3,7.82c-2.07,1.68-4.09.92-4.52-1.71A9.26,9.26,0,0,1,499.29,798.8Z" transform="translate(-439.42 -716.68)"/><path class="cls-1" d="M499.44,799.75c1.66-1.36,3.28-.74,3.62,1.37a7.39,7.39,0,0,1-2.38,6.26c-1.65,1.35-3.27.74-3.61-1.37A7.38,7.38,0,0,1,499.44,799.75Z" transform="translate(-439.42 -716.68)"/><path class="cls-1" d="M519,807.12l-9.56-3.63a.61.61,0,0,1,0-1.16l9.4-2.66a.55.55,0,0,1,.38,0l9.57,3.62a.61.61,0,0,1,0,1.16l-9.39,2.66A.65.65,0,0,1,519,807.12Z" transform="translate(-439.42 -716.68)"/><path class="cls-5" d="M544.84,838.06c1.75-1.43,3.46-.78,3.83,1.45a7.86,7.86,0,0,1-2.52,6.64c-1.75,1.43-3.47.78-3.83-1.45A7.83,7.83,0,0,1,544.84,838.06Z" transform="translate(-439.42 -716.68)"/><path class="cls-8" d="M533.33,831.15c4.94,2,9.61,4.06,13.94,6.26a39.3,39.3,0,0,1,8.7,6.08c3,2.81,2.44,4.31-1.71,4.53a39.76,39.76,0,0,1-10.55-1.22q-7.35-2.06-14.57-4.59c-2.83-1-5.65-2.07-8.46-3.19l4.2-11.06Q529.21,829.52,533.33,831.15Z" transform="translate(-439.42 -716.68)"/><path class="cls-7" d="M530.36,831.9c2.06-1.75,4.09-1,4.51,1.71a9.38,9.38,0,0,1-3,7.81c-2,1.68-4,.91-4.52-1.71A9.17,9.17,0,0,1,530.36,831.9Z" transform="translate(-439.42 -716.68)"/><path class="cls-7" d="M533.33,831.15l-4.19,11.06c-2.83-1-5.65-2.07-8.46-3.19l4.2-11.06Q529.21,829.52,533.33,831.15Z" transform="translate(-439.42 -716.68)"/><path class="cls-4" d="M522,828.73c2.06-1.69,4.08-.92,4.51,1.71a9.22,9.22,0,0,1-3,7.81c-2.06,1.69-4.09.92-4.51-1.71A9.22,9.22,0,0,1,522,828.73Z" transform="translate(-439.42 -716.68)"/><path class="cls-1" d="M522.15,829.67c1.66-1.35,3.28-.73,3.62,1.37a7.43,7.43,0,0,1-2.37,6.27c-1.66,1.35-3.28.74-3.62-1.37A7.44,7.44,0,0,1,522.15,829.67Z" transform="translate(-439.42 -716.68)"/><path class="cls-1" d="M541.68,837.05l-9.56-3.63a.61.61,0,0,1,0-1.16l9.39-2.66a.65.65,0,0,1,.39,0l9.56,3.63a.61.61,0,0,1,0,1.16l-9.39,2.66A.65.65,0,0,1,541.68,837.05Z" transform="translate(-439.42 -716.68)"/><path class="cls-4" d="M558.9,778.7c4.44-3.62,8.77-2,9.69,3.67s-1.93,13.17-6.36,16.79-8.77,2-9.69-3.68S554.47,782.32,558.9,778.7Z" transform="translate(-439.42 -716.68)"/><path class="cls-5" d="M614,807.6c-20-.44-42.75-.31-58-6.8L462.7,765.41l-3.2-1.34c-8.55-3.72-14.85-8.06-19.31-15.44-2.36-3.89,1-8.22,5.66-8.4,2.62-.1,4.85-.28,6.84-.47,1.54-.14,2.93-.28,4.24-.36.71-.06,1.41-.11,2.09-.13A25.69,25.69,0,0,1,470,741c.11,0,.23.06.32.1l94.76,35.93,51.49,23.16C621.28,802.4,619,808,614,807.6Z" transform="translate(-439.42 -716.68)"/><path class="cls-5" d="M630.65,832.66l-9-3.43-24.17-27.52a1,1,0,0,1,1.08-1.56c5.74.59,10.87,3.14,15.9,6l1.55,2.53,12.26,20Z" transform="translate(-439.42 -716.68)"/><path class="cls-8" d="M641.71,785.27l-2.81,1.85-19.38,12.73-3.08,2c-6.67-1.27-16.14-4.36-18.83-6.38a.79.79,0,0,1,.23-1.37l34.82-12.28Z" transform="translate(-439.42 -716.68)"/><path class="cls-8" d="M536.34,789.48c-2.07,1.69-21.75-3.33-35.39-8.51s-16.1-8.54-14-10.23,7.88-1.06,21.52,4.11S538.41,787.79,536.34,789.48Z" transform="translate(-439.42 -716.68)"/><path class="cls-5" d="M574.65,861.85l-12.57-4.78-1.32-.51-3.67-1.39-62.73-80.29a.21.21,0,0,1,.12-.34,20.32,20.32,0,0,1,8.43,1.15c.42.1.81.25,1.22.39,7,2.32,15.77,6.75,24.42,10.89a.74.74,0,0,1,.39.35l4.23,6.87,6.37,10.41L550.23,822l2.17,3.53,7.26,11.87,9.83,16v0Z" transform="translate(-439.42 -716.68)"/><path class="cls-1" d="M458.5,751.89c-6-4-6.64-9.15-5.81-12.13,1.54-.14,2.93-.28,4.24-.36-1.63,1.61.23,7.78,3.75,10.63C460,750.65,459.21,751.27,458.5,751.89Z" transform="translate(-439.42 -716.68)"/><path class="cls-9" d="M494.36,766.33a4.42,4.42,0,0,1-3.95.65l-28.47-10.89a1.22,1.22,0,0,1-.37-2.28h0a4.42,4.42,0,0,1,3.95-.64L494,764.06a1.21,1.21,0,0,1,.37,2.27Z" transform="translate(-439.42 -716.68)"/><path class="cls-9" d="M540,783.57a4.43,4.43,0,0,1-3.94.64l-14.19-5.45a1.22,1.22,0,0,1-.37-2.28h0a4.45,4.45,0,0,1,4-.64l14.18,5.45a1.22,1.22,0,0,1,.37,2.28Z" transform="translate(-439.42 -716.68)"/><path class="cls-1" d="M525.25,778.44a1.75,1.75,0,0,1-1.55.26h0c-.47-.18-.54-.58-.15-.9l.73-.6a1.74,1.74,0,0,1,1.56-.25h0a.47.47,0,0,1,.14.89Z" transform="translate(-439.42 -716.68)"/><path class="cls-1" d="M529.53,780.07a1.74,1.74,0,0,1-1.55.25h0a.48.48,0,0,1-.15-.9l.74-.6a1.75,1.75,0,0,1,1.55-.25h0c.47.18.54.58.15.9Z" transform="translate(-439.42 -716.68)"/><path class="cls-1" d="M533.82,781.69a1.72,1.72,0,0,1-1.55.25h0a.48.48,0,0,1-.15-.89l.73-.6a1.74,1.74,0,0,1,1.56-.25h0c.47.17.53.57.14.89Z" transform="translate(-439.42 -716.68)"/><path class="cls-1" d="M538.1,783.31a1.72,1.72,0,0,1-1.55.26h0c-.47-.18-.54-.58-.15-.9l.74-.6a1.72,1.72,0,0,1,1.55-.25h0a.48.48,0,0,1,.15.9Z" transform="translate(-439.42 -716.68)"/><path class="cls-1" d="M465.33,755.66a1.77,1.77,0,0,1-1.56.26h0c-.47-.18-.53-.58-.14-.9l.73-.6a1.72,1.72,0,0,1,1.55-.25h0a.48.48,0,0,1,.15.89Z" transform="translate(-439.42 -716.68)"/><path class="cls-1" d="M469.61,757.29a1.75,1.75,0,0,1-1.55.25h0c-.47-.18-.54-.58-.15-.9l.73-.6a1.77,1.77,0,0,1,1.56-.25h0c.47.18.53.58.14.9Z" transform="translate(-439.42 -716.68)"/><path class="cls-1" d="M473.89,758.91a1.71,1.71,0,0,1-1.55.25h0a.47.47,0,0,1-.14-.89l.73-.6a1.75,1.75,0,0,1,1.55-.26h0c.47.18.54.58.15.9Z" transform="translate(-439.42 -716.68)"/><path class="cls-1" d="M478.18,760.54a1.75,1.75,0,0,1-1.55.25h0c-.47-.18-.54-.58-.15-.9l.73-.6a1.74,1.74,0,0,1,1.56-.25h0c.47.18.53.58.14.9Z" transform="translate(-439.42 -716.68)"/><path class="cls-1" d="M482.46,762.16a1.72,1.72,0,0,1-1.55.25h0c-.47-.18-.54-.58-.15-.9l.74-.59a1.75,1.75,0,0,1,1.55-.26h0a.48.48,0,0,1,.15.9Z" transform="translate(-439.42 -716.68)"/><path class="cls-1" d="M486.75,763.78a1.77,1.77,0,0,1-1.56.26h0c-.47-.18-.53-.58-.14-.9l.73-.6a1.72,1.72,0,0,1,1.55-.25h0c.47.18.54.58.15.89Z" transform="translate(-439.42 -716.68)"/><path class="cls-1" d="M491,765.41a1.75,1.75,0,0,1-1.55.25h0c-.47-.18-.54-.58-.15-.9l.73-.6a1.77,1.77,0,0,1,1.56-.25h0c.47.18.53.58.14.9Z" transform="translate(-439.42 -716.68)"/><path class="cls-2" d="M476.71,764.45a1.36,1.36,0,0,1-.31-1.07,1.73,1.73,0,0,1,.92-1.13,19.21,19.21,0,0,0,3.74-3.06c1.7-1.77,2.93-1.33,4.47-.77a1.88,1.88,0,0,1,.87.56c.31.38.53,1.07-.24,2.18a12.51,12.51,0,0,1-3.82,3.51,4.46,4.46,0,0,1-4.58.49A2.54,2.54,0,0,1,476.71,764.45Zm9.28-5.14a1.22,1.22,0,0,0-.6-.38c-1.56-.57-2.49-.91-3.95.62a19.19,19.19,0,0,1-3.85,3.14,1.29,1.29,0,0,0-.67.79.79.79,0,0,0,.2.64,2,2,0,0,0,.82.55,4,4,0,0,0,4.14-.45,11.92,11.92,0,0,0,3.65-3.36C486.2,760.19,486.29,759.67,486,759.31Z" transform="translate(-439.42 -716.68)"/><path class="cls-7" d="M638.9,787.12l-19.38,12.73-4.77-1.74a.62.62,0,0,1-.06-1.11l19.68-11.45a.6.6,0,0,1,.54,0Z" transform="translate(-439.42 -716.68)"/><polygon class="cls-7" points="188.81 112.03 184.56 110.47 170.78 89.61 176.55 92.03 188.81 112.03"/><path class="cls-6" d="M562.08,857.07l-1.32-.51-14.55-20.33-24.7-34.54-18.6-26c.42.1.81.25,1.22.39L522,801l.72,1.06,24,33.56.68,1Z" transform="translate(-439.42 -716.68)"/><rect class="cls-6" x="529.08" y="795.63" width="0.77" height="16.35" transform="translate(-837.84 342.95) rotate(-72.04)"/><rect class="cls-6" x="551.72" y="831.35" width="0.77" height="11.97" transform="translate(-835.34 448.05) rotate(-75.65)"/><polygon class="cls-7" points="130.08 136.76 125.47 135.01 107.68 106.86 112.98 108.87 130.08 136.76"/><polygon class="cls-7" points="110.8 105.33 105.46 103.07 88.03 75.33 93.74 77.51 110.8 105.33"/><path class="cls-10" d="M556.17,793.85a9.94,9.94,0,0,1,1.85-2,10.45,10.45,0,0,1,1.32-.88l-4.11-1.56,1.71-1.4-10.54.11,3.68,5.5,1.71-1.4Z" transform="translate(-439.42 -716.68)"/><path class="cls-11" d="M560.86,798.08l-1.09.9a5.36,5.36,0,0,0,2.45-.27A14.46,14.46,0,0,0,560.86,798.08Z" transform="translate(-439.42 -716.68)"/><path class="cls-11" d="M561.26,797.76a11.32,11.32,0,0,1,1.56.76,15.54,15.54,0,0,0,2.33-1.08c-.72-.35-1.49-.68-2.29-1Z" transform="translate(-439.42 -716.68)"/><path class="cls-11" d="M569.19,794.28c-.89-.25-1.77-.54-2.62-.86l-1.46,1.19,2.68,1A15.09,15.09,0,0,0,569.19,794.28Z" transform="translate(-439.42 -716.68)"/><path class="cls-11" d="M563.26,796.12c.84.33,1.63.68,2.36,1a17.08,17.08,0,0,0,1.76-1.21l-2.67-1Z" transform="translate(-439.42 -716.68)"/><path class="cls-11" d="M570.47,792.35a16.68,16.68,0,0,1-1.9-.56l-1.6,1.3c.82.3,1.67.58,2.53.82A6,6,0,0,0,570.47,792.35Z" transform="translate(-439.42 -716.68)"/><path class="cls-11" d="M571.08,792c.27.06.52.11.77.14a2.43,2.43,0,0,0-.72-1A1.93,1.93,0,0,1,571.08,792Z" transform="translate(-439.42 -716.68)"/><path class="cls-11" d="M570.07,790.56l-1.1.9c.53.18,1.08.35,1.63.48A1.11,1.11,0,0,0,570.07,790.56Z" transform="translate(-439.42 -716.68)"/><path class="cls-11" d="M565.62,797.67a16.14,16.14,0,0,1-2.35,1.12c.19.13.37.26.53.39a14.4,14.4,0,0,0,3.05-.84C566.46,798.11,566.05,797.89,565.62,797.67Z" transform="translate(-439.42 -716.68)"/><path class="cls-11" d="M557.48,797.17a2.41,2.41,0,0,0,.38.66c.11.12.22.24.34.35a2.19,2.19,0,0,1,0-.87Z" transform="translate(-439.42 -716.68)"/><path class="cls-11" d="M563.73,791.69a16.65,16.65,0,0,1,2.35-1.12l-.53-.38a13.57,13.57,0,0,0-3,.83C562.9,791.25,563.31,791.48,563.73,791.69Z" transform="translate(-439.42 -716.68)"/><path class="cls-11" d="M564.2,791.92c.71.34,1.48.67,2.29,1l1.6-1.31a11.34,11.34,0,0,1-1.56-.75A13.77,13.77,0,0,0,564.2,791.92Z" transform="translate(-439.42 -716.68)"/><path class="cls-11" d="M567.78,790.06a11.67,11.67,0,0,0-1.55,0l.41.27C567,790.24,567.42,790.14,567.78,790.06Z" transform="translate(-439.42 -716.68)"/><path class="cls-11" d="M567.13,790.65a14.46,14.46,0,0,0,1.36.63l1.08-.89A5.41,5.41,0,0,0,567.13,790.65Z" transform="translate(-439.42 -716.68)"/><path class="cls-11" d="M559.26,798.81l1.11-.91a16.25,16.25,0,0,0-1.63-.48A1.13,1.13,0,0,0,559.26,798.81Z" transform="translate(-439.42 -716.68)"/><path class="cls-11" d="M560.15,795.08c.9.25,1.78.54,2.63.86l1.44-1.18-2.67-1A15,15,0,0,0,560.15,795.08Z" transform="translate(-439.42 -716.68)"/><path class="cls-11" d="M566.09,793.24c-.84-.33-1.64-.68-2.37-1a17.08,17.08,0,0,0-1.76,1.21l2.67,1Z" transform="translate(-439.42 -716.68)"/><path class="cls-11" d="M560.78,797.57l1.59-1.3c-.82-.3-1.67-.58-2.53-.83a6.15,6.15,0,0,0-1,1.57A17.48,17.48,0,0,1,560.78,797.57Z" transform="translate(-439.42 -716.68)"/><path class="cls-11" d="M572.75,792.71l-.23,0a3.57,3.57,0,0,1-.36,1.87l.67.13A2.81,2.81,0,0,0,572.75,792.71Z" transform="translate(-439.42 -716.68)"/><path class="cls-11" d="M569.69,794.42a13.41,13.41,0,0,1-1.42,1.39l1.74.66a6.82,6.82,0,0,0,1.43-1.62C570.85,794.72,570.26,794.58,569.69,794.42Z" transform="translate(-439.42 -716.68)"/><path class="cls-11" d="M562.06,790.75a14,14,0,0,1,3.08-.92h0a14.27,14.27,0,0,0-3.45.69Z" transform="translate(-439.42 -716.68)"/><path class="cls-11" d="M571.66,794.46a3.15,3.15,0,0,0,.32-1.83l-1-.17a6.22,6.22,0,0,1-1,1.59C570.56,794.2,571.12,794.34,571.66,794.46Z" transform="translate(-439.42 -716.68)"/><path class="cls-11" d="M557.39,794.4a7.18,7.18,0,0,1,1.45-1.68l-.73-.28a5.25,5.25,0,0,0-1.45,1.83Z" transform="translate(-439.42 -716.68)"/><path class="cls-11" d="M570.09,797a12.29,12.29,0,0,1-2.29,1.41l.41.27a10.45,10.45,0,0,0,2.61-1.4Z" transform="translate(-439.42 -716.68)"/><path class="cls-11" d="M572,795a7.08,7.08,0,0,1-1.46,1.7l.74.28a5.25,5.25,0,0,0,1.45-1.84Z" transform="translate(-439.42 -716.68)"/><path class="cls-11" d="M567.29,798.61a14,14,0,0,1-3.08.92v0a14.77,14.77,0,0,0,3.45-.69Z" transform="translate(-439.42 -716.68)"/><path class="cls-11" d="M561.55,791l-.41-.28a10.2,10.2,0,0,0-2.62,1.41l.72.27A12.24,12.24,0,0,1,561.55,791Z" transform="translate(-439.42 -716.68)"/><path class="cls-11" d="M559.65,794.94a12.46,12.46,0,0,1,1.42-1.38l-1.74-.66a6.79,6.79,0,0,0-1.43,1.61C558.49,794.64,559.08,794.78,559.65,794.94Z" transform="translate(-439.42 -716.68)"/><path class="cls-11" d="M557.18,794.8l-.67-.13a2.78,2.78,0,0,0,.07,2l.24,0A3.42,3.42,0,0,1,557.18,794.8Z" transform="translate(-439.42 -716.68)"/><path class="cls-11" d="M557.68,794.9a3.06,3.06,0,0,0-.32,1.83c.34,0,.69.1,1,.17a5.85,5.85,0,0,1,1-1.59C558.78,795.16,558.23,795,557.68,794.9Z" transform="translate(-439.42 -716.68)"/><path class="cls-11" d="M562,791.24a12.36,12.36,0,0,0-2.25,1.33l1.74.66a17.51,17.51,0,0,1,1.79-1.27C562.81,791.73,562.38,791.49,562,791.24Z" transform="translate(-439.42 -716.68)"/><path class="cls-11" d="M567.37,798.11a11.61,11.61,0,0,0,2.23-1.32l-1.73-.65a16.32,16.32,0,0,1-1.79,1.25Q566.77,797.75,567.37,798.11Z" transform="translate(-439.42 -716.68)"/><path class="cls-11" d="M562.71,799c-.41.13-.79.23-1.15.31a9.11,9.11,0,0,0,1.56,0Z" transform="translate(-439.42 -716.68)"/></g></svg>