<svg id="Maquette" xmlns="http://www.w3.org/2000/svg" viewBox="0 0 647.01 641.81"><defs><style>.cls-1{fill:#03003d;}.cls-2{fill:#fce300;}.cls-3{fill:#ededa6;}</style></defs><title>titre</title><g id="titre"><path class="cls-1" d="M400.23,391.2v40.63H371.16V310.28h44.2q13.25,0,22.75,3.05a44.08,44.08,0,0,1,15.65,8.38,32.69,32.69,0,0,1,9.07,12.6A41.58,41.58,0,0,1,465.76,350a45,45,0,0,1-3,16.69,33.61,33.61,0,0,1-9.2,13,43.83,43.83,0,0,1-15.7,8.47,74,74,0,0,1-22.49,3Zm0-21.27h15.13q11.36,0,16.34-5.26t5-14.68a21.36,21.36,0,0,0-1.29-7.59,15.38,15.38,0,0,0-3.91-5.88,17.78,17.78,0,0,0-6.62-3.8,30.19,30.19,0,0,0-9.51-1.33H400.23Z" transform="translate(-371.16 -209.95)"/><path class="cls-1" d="M621.76,371a63.5,63.5,0,0,1-4.69,24.53,58.88,58.88,0,0,1-13.2,19.73,60.62,60.62,0,0,1-20.51,13.14,77.08,77.08,0,0,1-53.28,0,61.07,61.07,0,0,1-20.59-13.14,58.71,58.71,0,0,1-13.25-19.73,66.6,66.6,0,0,1,0-49.05,58.25,58.25,0,0,1,13.25-19.69,61.45,61.45,0,0,1,20.59-13.1A72,72,0,0,1,556.74,309a71.07,71.07,0,0,1,26.62,4.8,61.37,61.37,0,0,1,20.51,13.13,58.51,58.51,0,0,1,13.2,19.69A63.3,63.3,0,0,1,621.76,371ZM592,371a51.24,51.24,0,0,0-2.4-16.22,34.1,34.1,0,0,0-6.93-12.22,29.8,29.8,0,0,0-11-7.68,39.09,39.09,0,0,0-14.88-2.67,39.57,39.57,0,0,0-15,2.67,29.75,29.75,0,0,0-11.1,7.68,33.94,33.94,0,0,0-6.92,12.22,56.09,56.09,0,0,0,0,32.53,33.94,33.94,0,0,0,6.92,12.22,29.43,29.43,0,0,0,11.1,7.64,40.18,40.18,0,0,0,15,2.62,39.68,39.68,0,0,0,14.88-2.62,29.48,29.48,0,0,0,11-7.64,34.1,34.1,0,0,0,6.93-12.22A51.51,51.51,0,0,0,592,371Z" transform="translate(-371.16 -209.95)"/><path class="cls-1" d="M682,386.86v45H652.89V310.28h40.76A86.41,86.41,0,0,1,716.83,313a44.18,44.18,0,0,1,15.65,7.55A28.8,28.8,0,0,1,741.3,332a37,37,0,0,1,2.75,14.35,37.73,37.73,0,0,1-1.63,11.18,33.56,33.56,0,0,1-4.86,9.72,36.88,36.88,0,0,1-7.92,8,42.15,42.15,0,0,1-10.79,5.76,27.55,27.55,0,0,1,5.46,3.5,21.07,21.07,0,0,1,4.43,5.09l26.66,42.3H729.08q-7.3,0-10.49-5.34L697.78,391.2a8.65,8.65,0,0,0-3.22-3.34,11.21,11.21,0,0,0-5.21-1Zm0-19.43h11.69A30.85,30.85,0,0,0,703.76,366a18.42,18.42,0,0,0,6.84-4.05,15.47,15.47,0,0,0,3.87-6.05,22.57,22.57,0,0,0,1.2-7.46q0-8-5.38-12.52t-16.64-4.5H682Z" transform="translate(-371.16 -209.95)"/><path class="cls-1" d="M886,310.28v22.36H850.69v99.19H821.62V332.64H786.36V310.28Z" transform="translate(-371.16 -209.95)"/><path class="cls-1" d="M594.07,485.28V507H542.64v30.78h42.83v21.78H542.64v47.3H513.4V485.28Z" transform="translate(-371.16 -209.95)"/><path class="cls-1" d="M766.58,546a63.68,63.68,0,0,1-4.68,24.53,59.05,59.05,0,0,1-13.21,19.73,60.62,60.62,0,0,1-20.51,13.14,77.05,77.05,0,0,1-53.27,0,61,61,0,0,1-20.6-13.14,58.54,58.54,0,0,1-13.24-19.73,66.47,66.47,0,0,1,0-49,58.08,58.08,0,0,1,13.24-19.69,61.39,61.39,0,0,1,20.6-13.1A72,72,0,0,1,701.57,484a71,71,0,0,1,26.61,4.8,61.37,61.37,0,0,1,20.51,13.13,58.69,58.69,0,0,1,13.21,19.69A63.48,63.48,0,0,1,766.58,546Zm-29.75,0a51.24,51.24,0,0,0-2.41-16.22,34.09,34.09,0,0,0-6.92-12.22,29.84,29.84,0,0,0-11.06-7.68,39,39,0,0,0-14.87-2.67,39.66,39.66,0,0,0-15,2.67,29.71,29.71,0,0,0-11.09,7.68,34.1,34.1,0,0,0-6.93,12.22,56.09,56.09,0,0,0,0,32.53,34.1,34.1,0,0,0,6.93,12.22,29.39,29.39,0,0,0,11.09,7.64,40.27,40.27,0,0,0,15,2.62,39.59,39.59,0,0,0,14.87-2.62,29.52,29.52,0,0,0,11.06-7.64,34.09,34.09,0,0,0,6.92-12.22A51.5,51.5,0,0,0,736.83,546Z" transform="translate(-371.16 -209.95)"/><path class="cls-1" d="M842.26,584.3H888.7v22.53H813.19V485.28h29.07Z" transform="translate(-371.16 -209.95)"/><path class="cls-1" d="M717.05,781.83H687.81V660.28h29.24Z" transform="translate(-371.16 -209.95)"/><path class="cls-1" d="M909.86,721a63.68,63.68,0,0,1-4.69,24.53A58.88,58.88,0,0,1,892,765.27a60.72,60.72,0,0,1-20.51,13.14,77.08,77.08,0,0,1-53.28,0,61.12,61.12,0,0,1-20.6-13.14,58.84,58.84,0,0,1-13.24-19.73,66.47,66.47,0,0,1,0-49,58.37,58.37,0,0,1,13.24-19.69,61.49,61.49,0,0,1,20.6-13.1A72,72,0,0,1,844.84,659a71.07,71.07,0,0,1,26.62,4.8A61.47,61.47,0,0,1,892,676.88a58.51,58.51,0,0,1,13.2,19.69A63.48,63.48,0,0,1,909.86,721Zm-29.76,0a51,51,0,0,0-2.41-16.22,33.94,33.94,0,0,0-6.92-12.22,29.8,29.8,0,0,0-11-7.68,39.09,39.09,0,0,0-14.88-2.67,39.66,39.66,0,0,0-15,2.67,29.79,29.79,0,0,0-11.09,7.68,33.94,33.94,0,0,0-6.92,12.22,56.09,56.09,0,0,0,0,32.53,33.94,33.94,0,0,0,6.92,12.22,29.47,29.47,0,0,0,11.09,7.64,40.27,40.27,0,0,0,15,2.62,39.68,39.68,0,0,0,14.88-2.62,29.48,29.48,0,0,0,11-7.64,33.94,33.94,0,0,0,6.92-12.22A51.22,51.22,0,0,0,880.1,721Z" transform="translate(-371.16 -209.95)"/><path class="cls-2" d="M490.23,292.2v40.63H461.16V211.28h44.2q13.25,0,22.75,3.05a44.08,44.08,0,0,1,15.65,8.38,32.69,32.69,0,0,1,9.07,12.6A41.58,41.58,0,0,1,555.76,251a45,45,0,0,1-3,16.69,33.61,33.61,0,0,1-9.2,13,43.83,43.83,0,0,1-15.7,8.47,74,74,0,0,1-22.49,3Zm0-21.27h15.13q11.35,0,16.34-5.26t5-14.68a21.36,21.36,0,0,0-1.29-7.59,15.38,15.38,0,0,0-3.91-5.88,17.78,17.78,0,0,0-6.62-3.8,30.19,30.19,0,0,0-9.51-1.33H490.23Z" transform="translate(-371.16 -209.95)"/><path class="cls-3" d="M711.76,272a63.5,63.5,0,0,1-4.69,24.53,58.88,58.88,0,0,1-13.2,19.73,60.62,60.62,0,0,1-20.51,13.14,77.08,77.08,0,0,1-53.28,0,61.07,61.07,0,0,1-20.59-13.14,58.71,58.71,0,0,1-13.25-19.73,66.6,66.6,0,0,1,0-49.05,58.25,58.25,0,0,1,13.25-19.69,61.45,61.45,0,0,1,20.59-13.1A72,72,0,0,1,646.74,210a71.07,71.07,0,0,1,26.62,4.8,61.37,61.37,0,0,1,20.51,13.13,58.51,58.51,0,0,1,13.2,19.69A63.3,63.3,0,0,1,711.76,272ZM682,272a51.24,51.24,0,0,0-2.4-16.22,34.1,34.1,0,0,0-6.93-12.22,29.8,29.8,0,0,0-11-7.68,39.09,39.09,0,0,0-14.88-2.67,39.57,39.57,0,0,0-15,2.67,29.75,29.75,0,0,0-11.1,7.68,33.94,33.94,0,0,0-6.92,12.22,56.09,56.09,0,0,0,0,32.53,33.94,33.94,0,0,0,6.92,12.22,29.43,29.43,0,0,0,11.1,7.64,40.18,40.18,0,0,0,15,2.62,39.68,39.68,0,0,0,14.88-2.62,29.48,29.48,0,0,0,11-7.64,34.1,34.1,0,0,0,6.93-12.22A51.51,51.51,0,0,0,682,272Z" transform="translate(-371.16 -209.95)"/><path class="cls-2" d="M772,287.86v45H742.89V211.28h40.76A86.41,86.41,0,0,1,806.83,214a44.18,44.18,0,0,1,15.65,7.55A28.8,28.8,0,0,1,831.3,233a37,37,0,0,1,2.75,14.35,37.73,37.73,0,0,1-1.63,11.18,33.56,33.56,0,0,1-4.86,9.72,36.88,36.88,0,0,1-7.92,8,42.15,42.15,0,0,1-10.79,5.76,27.55,27.55,0,0,1,5.46,3.5,21.07,21.07,0,0,1,4.43,5.09l26.66,42.3H819.08q-7.3,0-10.49-5.34L787.78,292.2a8.65,8.65,0,0,0-3.22-3.34,11.21,11.21,0,0,0-5.21-1Zm0-19.43h11.69A30.85,30.85,0,0,0,793.76,267a18.42,18.42,0,0,0,6.84-4.05,15.47,15.47,0,0,0,3.87-6.05,22.57,22.57,0,0,0,1.2-7.46q0-8-5.38-12.52t-16.64-4.5H772Z" transform="translate(-371.16 -209.95)"/><path class="cls-2" d="M976,211.28v22.36H940.69v99.19H911.62V233.64H876.36V211.28Z" transform="translate(-371.16 -209.95)"/><path class="cls-2" d="M684.07,386.28V408H632.64v30.78h42.83v21.78H632.64v47.3H603.4V386.28Z" transform="translate(-371.16 -209.95)"/><path class="cls-3" d="M856.58,447a63.68,63.68,0,0,1-4.68,24.53,59.05,59.05,0,0,1-13.21,19.73,60.62,60.62,0,0,1-20.51,13.14,77.05,77.05,0,0,1-53.27,0,61,61,0,0,1-20.6-13.14,58.54,58.54,0,0,1-13.24-19.73,66.47,66.47,0,0,1,0-49.05,58.08,58.08,0,0,1,13.24-19.69,61.39,61.39,0,0,1,20.6-13.1A72,72,0,0,1,791.57,385a71,71,0,0,1,26.61,4.8,61.37,61.37,0,0,1,20.51,13.13,58.69,58.69,0,0,1,13.21,19.69A63.48,63.48,0,0,1,856.58,447Zm-29.75,0a51.24,51.24,0,0,0-2.41-16.22,34.09,34.09,0,0,0-6.92-12.22,29.84,29.84,0,0,0-11.06-7.68,39,39,0,0,0-14.87-2.67,39.66,39.66,0,0,0-15,2.67,29.71,29.71,0,0,0-11.09,7.68,34.1,34.1,0,0,0-6.93,12.22,56.09,56.09,0,0,0,0,32.53,34.1,34.1,0,0,0,6.93,12.22,29.39,29.39,0,0,0,11.09,7.64,40.27,40.27,0,0,0,15,2.62,39.59,39.59,0,0,0,14.87-2.62,29.52,29.52,0,0,0,11.06-7.64,34.09,34.09,0,0,0,6.92-12.22A51.5,51.5,0,0,0,826.83,447Z" transform="translate(-371.16 -209.95)"/><path class="cls-2" d="M932.26,485.3H978.7v22.53H903.19V386.28h29.07Z" transform="translate(-371.16 -209.95)"/><path class="cls-2" d="M807.05,682.83H777.81V561.28h29.24Z" transform="translate(-371.16 -209.95)"/><path class="cls-3" d="M999.86,622a63.68,63.68,0,0,1-4.69,24.53A58.88,58.88,0,0,1,982,666.27a60.72,60.72,0,0,1-20.51,13.14,77.08,77.08,0,0,1-53.28,0,61.12,61.12,0,0,1-20.6-13.14,58.84,58.84,0,0,1-13.24-19.73,66.47,66.47,0,0,1,0-49,58.37,58.37,0,0,1,13.24-19.69,61.49,61.49,0,0,1,20.6-13.1A72,72,0,0,1,934.84,560a71.07,71.07,0,0,1,26.62,4.8A61.47,61.47,0,0,1,982,577.88a58.51,58.51,0,0,1,13.2,19.69A63.48,63.48,0,0,1,999.86,622Zm-29.76,0a51,51,0,0,0-2.41-16.22,33.94,33.94,0,0,0-6.92-12.22,29.8,29.8,0,0,0-11-7.68,39.09,39.09,0,0,0-14.88-2.67,39.66,39.66,0,0,0-15,2.67,29.79,29.79,0,0,0-11.09,7.68,33.94,33.94,0,0,0-6.92,12.22,56.09,56.09,0,0,0,0,32.53,33.94,33.94,0,0,0,6.92,12.22,29.47,29.47,0,0,0,11.09,7.64,40.27,40.27,0,0,0,15,2.62,39.68,39.68,0,0,0,14.88-2.62,29.48,29.48,0,0,0,11-7.64,33.94,33.94,0,0,0,6.92-12.22A51.22,51.22,0,0,0,970.1,622Z" transform="translate(-371.16 -209.95)"/><polygon class="cls-2" points="70.02 545.05 69.85 515.9 635.33 514.52 635.5 543.67 70.02 545.05"/><path class="cls-3" d="M439,798.91h10.26v19.45H467V798.91h10.23v51.55H467v-22.6H449.26v22.6H439Z" transform="translate(-371.16 -209.95)"/><path class="cls-3" d="M496.4,798.91h10.16v33.34a17,17,0,0,0,.77,6.09,6.15,6.15,0,0,0,2.57,2.85,8.19,8.19,0,0,0,4.32,1.07,8.58,8.58,0,0,0,4.61-1.19,6.36,6.36,0,0,0,2.67-3q.74-1.83.74-7V798.91h10.15v30.73q0,7.79-.9,10.8a15.15,15.15,0,0,1-3.45,5.82,16.06,16.06,0,0,1-5.87,4.15,20.48,20.48,0,0,1-7.73,1.35,19.15,19.15,0,0,1-10.07-2.58,15.14,15.14,0,0,1-6.12-6.44q-1.85-3.88-1.85-13.1Z" transform="translate(-371.16 -209.95)"/><path class="cls-3" d="M600.6,807.32l-7.12,6.83a21.37,21.37,0,0,0-15.77-6.94,18.33,18.33,0,0,0-13.14,5,16.27,16.27,0,0,0-5.3,12.27,16.73,16.73,0,0,0,5.5,12.65,19,19,0,0,0,13.56,5.19,17,17,0,0,0,8.84-2.14,15.21,15.21,0,0,0,5.81-6.7H577.59v-9.21h26.74l.07,2.17a25.9,25.9,0,0,1-13,22.08A27.31,27.31,0,0,1,578,851.76a30.59,30.59,0,0,1-14.76-3.49,25.85,25.85,0,0,1-10.26-9.93,27.06,27.06,0,0,1-3.78-13.92,25.41,25.41,0,0,1,7-17.8q8.26-9,21.53-9a33.63,33.63,0,0,1,13,2.49A29.64,29.64,0,0,1,600.6,807.32Z" transform="translate(-371.16 -209.95)"/><path class="cls-3" d="M646.18,797.61a26.81,26.81,0,0,1,19.4,7.92,26,26,0,0,1,8.11,19.31,25.68,25.68,0,0,1-8,19.1,26.77,26.77,0,0,1-19.44,7.82q-12,0-19.88-8a26.92,26.92,0,0,1-4.24-32.66,26.85,26.85,0,0,1,10.15-9.83A27.87,27.87,0,0,1,646.18,797.61Zm-.11,9.6a17.09,17.09,0,0,0-17.43,17.63A16.3,16.3,0,0,0,635,838.37a17.65,17.65,0,0,0,11.28,3.89,17.28,17.28,0,0,0,17.33-17.49,17.41,17.41,0,0,0-17.51-17.56Z" transform="translate(-371.16 -209.95)"/><path class="cls-3" d="M718.77,798.91h12q11.6,0,17.22,2.78a22.17,22.17,0,0,1,9.28,9.06,30.94,30.94,0,0,1,1.6,25.61,22.65,22.65,0,0,1-5.63,8.29,20,20,0,0,1-7.78,4.55q-4.19,1.26-14.51,1.26H718.77Zm10.05,9.46V840.9h4.7c4.62,0,8-.52,10.06-1.55a11.86,11.86,0,0,0,5.11-5.19,18.51,18.51,0,0,0,2-9q0-8.22-4.73-12.74-4.28-4.07-13.7-4.07Z" transform="translate(-371.16 -209.95)"/><path class="cls-3" d="M777.59,798.91h10.15v33.34a16.72,16.72,0,0,0,.78,6.09,6.09,6.09,0,0,0,2.57,2.85,8.18,8.18,0,0,0,4.31,1.07,8.55,8.55,0,0,0,4.61-1.19,6.26,6.26,0,0,0,2.67-3q.75-1.83.75-7V798.91h10.15v30.73q0,7.79-.9,10.8a15.41,15.41,0,0,1-3.45,5.82,16,16,0,0,1-5.88,4.15,20.41,20.41,0,0,1-7.73,1.35,19.11,19.11,0,0,1-10.06-2.58,15.11,15.11,0,0,1-6.13-6.44q-1.83-3.88-1.84-13.1Z" transform="translate(-371.16 -209.95)"/><path class="cls-3" d="M832.69,798.91h10.73q8.7,0,12.55,1.56a12.66,12.66,0,0,1,6.07,5,15.28,15.28,0,0,1,2.23,8.36,13.73,13.73,0,0,1-2.91,9,15.07,15.07,0,0,1-7.9,5q-2.93.81-10.66.81v21.83H832.69Zm10.11,20.15H846a17.84,17.84,0,0,0,5.27-.53,4.62,4.62,0,0,0,2.33-1.74,5,5,0,0,0,.85-2.93,4.67,4.67,0,0,0-2.38-4.37q-1.74-1-6.43-1H842.8Z" transform="translate(-371.16 -209.95)"/><path class="cls-3" d="M882.25,798.91H893q8.81,0,12.54,1.52a12.75,12.75,0,0,1,6,5.07,15.12,15.12,0,0,1,2.28,8.37,14,14,0,0,1-2.51,8.5,15.28,15.28,0,0,1-7.57,5.17l12.59,22.92H905.25l-12-21.83h-.93v21.83H882.25Zm10.12,20.15h3.17c3.22,0,5.43-.41,6.65-1.23a4.56,4.56,0,0,0,1.81-4.08,4.87,4.87,0,0,0-3.31-4.73,18.94,18.94,0,0,0-5.55-.55h-2.77Z" transform="translate(-371.16 -209.95)"/><path class="cls-3" d="M948.11,798.91h10.26l20.44,51.55H968.3l-4.16-10.62H942.45l-4.33,10.62H927.61Zm5.19,13.67-7.13,17.7h14.22Z" transform="translate(-371.16 -209.95)"/><path class="cls-3" d="M988.79,798.91h29.38v9.67h-9.68v41.88H998.22V808.58h-9.43Z" transform="translate(-371.16 -209.95)"/></g></svg>